<?xml version="1.0" encoding="utf-8"?>
<svg xmlns="http://www.w3.org/2000/svg" xmlns:xlink="http://www.w3.org/1999/xlink" width="400" height="400" viewBox="0 0 1600 1600">
<defs>
  <clipPath id="clip7500">
    <rect x="0" y="0" width="1600" height="1600"/>
  </clipPath>
</defs>
<path clip-path="url(#clip7500)" d="
M0 1600 L1600 1600 L1600 0 L0 0  Z
  " fill="#ffffff" fill-rule="evenodd" fill-opacity="1"/>
<defs>
  <clipPath id="clip7501">
    <rect x="320" y="160" width="1121" height="1121"/>
  </clipPath>
</defs>
<path clip-path="url(#clip7500)" d="
M102.74 1505.26 L1552.76 1505.26 L1552.76 47.2441 L102.74 47.2441  Z
  " fill="#ffffff" fill-rule="evenodd" fill-opacity="1"/>
<defs>
  <clipPath id="clip7502">
    <rect x="102" y="47" width="1451" height="1459"/>
  </clipPath>
</defs>
<polyline clip-path="url(#clip7502)" style="stroke:#000000; stroke-width:2; stroke-opacity:0.1; fill:none" points="
  247.742,1505.26 247.742,47.2441 
  "/>
<polyline clip-path="url(#clip7502)" style="stroke:#000000; stroke-width:2; stroke-opacity:0.1; fill:none" points="
  392.743,1505.26 392.743,47.2441 
  "/>
<polyline clip-path="url(#clip7502)" style="stroke:#000000; stroke-width:2; stroke-opacity:0.1; fill:none" points="
  537.745,1505.26 537.745,47.2441 
  "/>
<polyline clip-path="url(#clip7502)" style="stroke:#000000; stroke-width:2; stroke-opacity:0.1; fill:none" points="
  682.746,1505.26 682.746,47.2441 
  "/>
<polyline clip-path="url(#clip7502)" style="stroke:#000000; stroke-width:2; stroke-opacity:0.1; fill:none" points="
  827.748,1505.26 827.748,47.2441 
  "/>
<polyline clip-path="url(#clip7502)" style="stroke:#000000; stroke-width:2; stroke-opacity:0.1; fill:none" points="
  972.75,1505.26 972.75,47.2441 
  "/>
<polyline clip-path="url(#clip7502)" style="stroke:#000000; stroke-width:2; stroke-opacity:0.1; fill:none" points="
  1117.75,1505.26 1117.75,47.2441 
  "/>
<polyline clip-path="url(#clip7502)" style="stroke:#000000; stroke-width:2; stroke-opacity:0.1; fill:none" points="
  1262.75,1505.26 1262.75,47.2441 
  "/>
<polyline clip-path="url(#clip7502)" style="stroke:#000000; stroke-width:2; stroke-opacity:0.1; fill:none" points="
  1407.75,1505.26 1407.75,47.2441 
  "/>
<polyline clip-path="url(#clip7502)" style="stroke:#000000; stroke-width:2; stroke-opacity:0.1; fill:none" points="
  102.74,1488.07 1552.76,1488.07 
  "/>
<polyline clip-path="url(#clip7502)" style="stroke:#000000; stroke-width:2; stroke-opacity:0.1; fill:none" points="
  102.74,1183.82 1552.76,1183.82 
  "/>
<polyline clip-path="url(#clip7502)" style="stroke:#000000; stroke-width:2; stroke-opacity:0.1; fill:none" points="
  102.74,879.565 1552.76,879.565 
  "/>
<polyline clip-path="url(#clip7502)" style="stroke:#000000; stroke-width:2; stroke-opacity:0.1; fill:none" points="
  102.74,575.312 1552.76,575.312 
  "/>
<polyline clip-path="url(#clip7502)" style="stroke:#000000; stroke-width:2; stroke-opacity:0.1; fill:none" points="
  102.74,271.06 1552.76,271.06 
  "/>
<polyline clip-path="url(#clip7500)" style="stroke:#000000; stroke-width:4; stroke-opacity:1; fill:none" points="
  102.74,1505.26 1552.76,1505.26 
  "/>
<polyline clip-path="url(#clip7500)" style="stroke:#000000; stroke-width:4; stroke-opacity:1; fill:none" points="
  102.74,1505.26 102.74,47.2441 
  "/>
<polyline clip-path="url(#clip7500)" style="stroke:#000000; stroke-width:4; stroke-opacity:1; fill:none" points="
  247.742,1505.26 247.742,1487.76 
  "/>
<polyline clip-path="url(#clip7500)" style="stroke:#000000; stroke-width:4; stroke-opacity:1; fill:none" points="
  392.743,1505.26 392.743,1487.76 
  "/>
<polyline clip-path="url(#clip7500)" style="stroke:#000000; stroke-width:4; stroke-opacity:1; fill:none" points="
  537.745,1505.26 537.745,1487.76 
  "/>
<polyline clip-path="url(#clip7500)" style="stroke:#000000; stroke-width:4; stroke-opacity:1; fill:none" points="
  682.746,1505.26 682.746,1487.76 
  "/>
<polyline clip-path="url(#clip7500)" style="stroke:#000000; stroke-width:4; stroke-opacity:1; fill:none" points="
  827.748,1505.26 827.748,1487.76 
  "/>
<polyline clip-path="url(#clip7500)" style="stroke:#000000; stroke-width:4; stroke-opacity:1; fill:none" points="
  972.75,1505.26 972.75,1487.76 
  "/>
<polyline clip-path="url(#clip7500)" style="stroke:#000000; stroke-width:4; stroke-opacity:1; fill:none" points="
  1117.75,1505.26 1117.75,1487.76 
  "/>
<polyline clip-path="url(#clip7500)" style="stroke:#000000; stroke-width:4; stroke-opacity:1; fill:none" points="
  1262.75,1505.26 1262.75,1487.76 
  "/>
<polyline clip-path="url(#clip7500)" style="stroke:#000000; stroke-width:4; stroke-opacity:1; fill:none" points="
  1407.75,1505.26 1407.75,1487.76 
  "/>
<polyline clip-path="url(#clip7500)" style="stroke:#000000; stroke-width:4; stroke-opacity:1; fill:none" points="
  102.74,1488.07 120.14,1488.07 
  "/>
<polyline clip-path="url(#clip7500)" style="stroke:#000000; stroke-width:4; stroke-opacity:1; fill:none" points="
  102.74,1183.82 120.14,1183.82 
  "/>
<polyline clip-path="url(#clip7500)" style="stroke:#000000; stroke-width:4; stroke-opacity:1; fill:none" points="
  102.74,879.565 120.14,879.565 
  "/>
<polyline clip-path="url(#clip7500)" style="stroke:#000000; stroke-width:4; stroke-opacity:1; fill:none" points="
  102.74,575.312 120.14,575.312 
  "/>
<polyline clip-path="url(#clip7500)" style="stroke:#000000; stroke-width:4; stroke-opacity:1; fill:none" points="
  102.74,271.06 120.14,271.06 
  "/>
<path clip-path="url(#clip7500)" d="M 0 0 M239.015 1524.78 L232.672 1541.98 L245.381 1541.98 L239.015 1524.78 M236.376 1520.17 L241.677 1520.17 L254.848 1554.73 L249.987 1554.73 L246.839 1545.87 L231.26 1545.87 L228.112 1554.73 L223.182 1554.73 L236.376 1520.17 Z" fill="#000000" fill-rule="evenodd" fill-opacity="1" /><path clip-path="url(#clip7500)" d="M 0 0 M259.316 1518.71 L263.575 1518.71 L263.575 1554.73 L259.316 1554.73 L259.316 1518.71 Z" fill="#000000" fill-rule="evenodd" fill-opacity="1" /><path clip-path="url(#clip7500)" d="M 0 0 M268.043 1518.71 L272.302 1518.71 L272.302 1554.73 L268.043 1554.73 L268.043 1518.71 Z" fill="#000000" fill-rule="evenodd" fill-opacity="1" /><path clip-path="url(#clip7500)" d="M 0 0 M383.125 1550.8 L390.764 1550.8 L390.764 1524.43 L382.454 1526.1 L382.454 1521.84 L390.718 1520.17 L395.394 1520.17 L395.394 1550.8 L403.033 1550.8 L403.033 1554.73 L383.125 1554.73 L383.125 1550.8 Z" fill="#000000" fill-rule="evenodd" fill-opacity="1" /><path clip-path="url(#clip7500)" d="M 0 0 M532.398 1550.8 L548.717 1550.8 L548.717 1554.73 L526.773 1554.73 L526.773 1550.8 Q529.435 1548.04 534.018 1543.41 Q538.625 1538.76 539.805 1537.42 Q542.05 1534.89 542.93 1533.16 Q543.833 1531.4 543.833 1529.71 Q543.833 1526.95 541.888 1525.22 Q539.967 1523.48 536.865 1523.48 Q534.666 1523.48 532.213 1524.25 Q529.782 1525.01 527.004 1526.56 L527.004 1521.84 Q529.828 1520.7 532.282 1520.13 Q534.736 1519.55 536.773 1519.55 Q542.143 1519.55 545.337 1522.23 Q548.532 1524.92 548.532 1529.41 Q548.532 1531.54 547.722 1533.46 Q546.935 1535.36 544.828 1537.95 Q544.249 1538.62 541.148 1541.84 Q538.046 1545.03 532.398 1550.8 Z" fill="#000000" fill-rule="evenodd" fill-opacity="1" /><path clip-path="url(#clip7500)" d="M 0 0 M686.994 1536.1 Q690.351 1536.82 692.226 1539.08 Q694.124 1541.35 694.124 1544.69 Q694.124 1549.8 690.605 1552.6 Q687.087 1555.4 680.605 1555.4 Q678.429 1555.4 676.115 1554.96 Q673.823 1554.55 671.369 1553.69 L671.369 1549.18 Q673.314 1550.31 675.628 1550.89 Q677.943 1551.47 680.466 1551.47 Q684.865 1551.47 687.156 1549.73 Q689.471 1548 689.471 1544.69 Q689.471 1541.63 687.318 1539.92 Q685.189 1538.18 681.369 1538.18 L677.341 1538.18 L677.341 1534.34 L681.554 1534.34 Q685.003 1534.34 686.832 1532.97 Q688.661 1531.58 688.661 1528.99 Q688.661 1526.33 686.763 1524.92 Q684.888 1523.48 681.369 1523.48 Q679.448 1523.48 677.249 1523.9 Q675.05 1524.32 672.411 1525.19 L672.411 1521.03 Q675.073 1520.29 677.388 1519.92 Q679.726 1519.55 681.786 1519.55 Q687.11 1519.55 690.212 1521.98 Q693.314 1524.38 693.314 1528.51 Q693.314 1531.38 691.67 1533.37 Q690.027 1535.33 686.994 1536.1 Z" fill="#000000" fill-rule="evenodd" fill-opacity="1" /><path clip-path="url(#clip7500)" d="M 0 0 M830.757 1524.25 L818.952 1542.69 L830.757 1542.69 L830.757 1524.25 M829.53 1520.17 L835.41 1520.17 L835.41 1542.69 L840.341 1542.69 L840.341 1546.58 L835.41 1546.58 L835.41 1554.73 L830.757 1554.73 L830.757 1546.58 L815.156 1546.58 L815.156 1542.07 L829.53 1520.17 Z" fill="#000000" fill-rule="evenodd" fill-opacity="1" /><path clip-path="url(#clip7500)" d="M 0 0 M963.027 1520.17 L981.384 1520.17 L981.384 1524.11 L967.31 1524.11 L967.31 1532.58 Q968.328 1532.23 969.347 1532.07 Q970.365 1531.88 971.384 1531.88 Q977.171 1531.88 980.55 1535.06 Q983.93 1538.23 983.93 1543.64 Q983.93 1549.22 980.458 1552.32 Q976.986 1555.4 970.666 1555.4 Q968.49 1555.4 966.222 1555.03 Q963.977 1554.66 961.569 1553.92 L961.569 1549.22 Q963.652 1550.36 965.875 1550.91 Q968.097 1551.47 970.574 1551.47 Q974.578 1551.47 976.916 1549.36 Q979.254 1547.26 979.254 1543.64 Q979.254 1540.03 976.916 1537.93 Q974.578 1535.82 970.574 1535.82 Q968.699 1535.82 966.824 1536.24 Q964.972 1536.65 963.027 1537.53 L963.027 1520.17 Z" fill="#000000" fill-rule="evenodd" fill-opacity="1" /><path clip-path="url(#clip7500)" d="M 0 0 M1118.16 1535.59 Q1115.01 1535.59 1113.16 1537.74 Q1111.33 1539.89 1111.33 1543.64 Q1111.33 1547.37 1113.16 1549.55 Q1115.01 1551.7 1118.16 1551.7 Q1121.3 1551.7 1123.13 1549.55 Q1124.98 1547.37 1124.98 1543.64 Q1124.98 1539.89 1123.13 1537.74 Q1121.3 1535.59 1118.16 1535.59 M1127.44 1520.94 L1127.44 1525.19 Q1125.68 1524.36 1123.87 1523.92 Q1122.09 1523.48 1120.33 1523.48 Q1115.7 1523.48 1113.25 1526.61 Q1110.82 1529.73 1110.47 1536.05 Q1111.84 1534.04 1113.9 1532.97 Q1115.96 1531.88 1118.43 1531.88 Q1123.64 1531.88 1126.65 1535.06 Q1129.68 1538.2 1129.68 1543.64 Q1129.68 1548.97 1126.54 1552.19 Q1123.39 1555.4 1118.16 1555.4 Q1112.16 1555.4 1108.99 1550.82 Q1105.82 1546.21 1105.82 1537.49 Q1105.82 1529.29 1109.71 1524.43 Q1113.6 1519.55 1120.15 1519.55 Q1121.91 1519.55 1123.69 1519.89 Q1125.49 1520.24 1127.44 1520.94 Z" fill="#000000" fill-rule="evenodd" fill-opacity="1" /><path clip-path="url(#clip7500)" d="M 0 0 M1251.64 1520.17 L1273.86 1520.17 L1273.86 1522.16 L1261.32 1554.73 L1256.43 1554.73 L1268.24 1524.11 L1251.64 1524.11 L1251.64 1520.17 Z" fill="#000000" fill-rule="evenodd" fill-opacity="1" /><path clip-path="url(#clip7500)" d="M 0 0 M1407.75 1538.32 Q1404.42 1538.32 1402.5 1540.1 Q1400.6 1541.88 1400.6 1545.01 Q1400.6 1548.13 1402.5 1549.92 Q1404.42 1551.7 1407.75 1551.7 Q1411.09 1551.7 1413.01 1549.92 Q1414.93 1548.11 1414.93 1545.01 Q1414.93 1541.88 1413.01 1540.1 Q1411.11 1538.32 1407.75 1538.32 M1403.08 1536.33 Q1400.07 1535.59 1398.38 1533.53 Q1396.71 1531.47 1396.71 1528.51 Q1396.71 1524.36 1399.65 1521.95 Q1402.62 1519.55 1407.75 1519.55 Q1412.92 1519.55 1415.86 1521.95 Q1418.8 1524.36 1418.8 1528.51 Q1418.8 1531.47 1417.11 1533.53 Q1415.44 1535.59 1412.45 1536.33 Q1415.83 1537.12 1417.71 1539.41 Q1419.61 1541.7 1419.61 1545.01 Q1419.61 1550.03 1416.53 1552.72 Q1413.47 1555.4 1407.75 1555.4 Q1402.04 1555.4 1398.96 1552.72 Q1395.9 1550.03 1395.9 1545.01 Q1395.9 1541.7 1397.8 1539.41 Q1399.7 1537.12 1403.08 1536.33 M1401.37 1528.94 Q1401.37 1531.63 1403.03 1533.13 Q1404.72 1534.64 1407.75 1534.64 Q1410.76 1534.64 1412.45 1533.13 Q1414.17 1531.63 1414.17 1528.94 Q1414.17 1526.26 1412.45 1524.76 Q1410.76 1523.25 1407.75 1523.25 Q1404.72 1523.25 1403.03 1524.76 Q1401.37 1526.26 1401.37 1528.94 Z" fill="#000000" fill-rule="evenodd" fill-opacity="1" /><path clip-path="url(#clip7500)" d="M 0 0 M22.4581 1490.47 L34.9349 1490.47 L34.9349 1494.26 L22.4581 1494.26 L22.4581 1490.47 Z" fill="#000000" fill-rule="evenodd" fill-opacity="1" /><path clip-path="url(#clip7500)" d="M 0 0 M40.8145 1501.41 L48.4533 1501.41 L48.4533 1475.05 L40.1432 1476.72 L40.1432 1472.46 L48.407 1470.79 L53.0829 1470.79 L53.0829 1501.41 L60.7218 1501.41 L60.7218 1505.35 L40.8145 1505.35 L40.8145 1501.41 Z" fill="#000000" fill-rule="evenodd" fill-opacity="1" /><path clip-path="url(#clip7500)" d="M 0 0 M65.8375 1470.79 L84.1939 1470.79 L84.1939 1474.72 L70.1199 1474.72 L70.1199 1483.2 Q71.1384 1482.85 72.1569 1482.69 Q73.1754 1482.5 74.1939 1482.5 Q79.9809 1482.5 83.3605 1485.67 Q86.7402 1488.84 86.7402 1494.26 Q86.7402 1499.84 83.268 1502.94 Q79.7958 1506.02 73.4763 1506.02 Q71.3004 1506.02 69.0319 1505.65 Q66.7866 1505.28 64.3792 1504.54 L64.3792 1499.84 Q66.4625 1500.97 68.6847 1501.53 Q70.9069 1502.09 73.3837 1502.09 Q77.3884 1502.09 79.7263 1499.98 Q82.0643 1497.87 82.0643 1494.26 Q82.0643 1490.65 79.7263 1488.54 Q77.3884 1486.44 73.3837 1486.44 Q71.5088 1486.44 69.6338 1486.85 Q67.7819 1487.27 65.8375 1488.15 L65.8375 1470.79 Z" fill="#000000" fill-rule="evenodd" fill-opacity="1" /><path clip-path="url(#clip7500)" d="M 0 0 M21.4627 1186.21 L33.9395 1186.21 L33.9395 1190.01 L21.4627 1190.01 L21.4627 1186.21 Z" fill="#000000" fill-rule="evenodd" fill-opacity="1" /><path clip-path="url(#clip7500)" d="M 0 0 M39.8191 1197.16 L47.458 1197.16 L47.458 1170.8 L39.1478 1172.46 L39.1478 1168.2 L47.4117 1166.54 L52.0876 1166.54 L52.0876 1197.16 L59.7264 1197.16 L59.7264 1201.1 L39.8191 1201.1 L39.8191 1197.16 Z" fill="#000000" fill-rule="evenodd" fill-opacity="1" /><path clip-path="url(#clip7500)" d="M 0 0 M74.7958 1169.62 Q71.1847 1169.62 69.356 1173.18 Q67.5504 1176.72 67.5504 1183.85 Q67.5504 1190.96 69.356 1194.52 Q71.1847 1198.06 74.7958 1198.06 Q78.43 1198.06 80.2356 1194.52 Q82.0643 1190.96 82.0643 1183.85 Q82.0643 1176.72 80.2356 1173.18 Q78.43 1169.62 74.7958 1169.62 M74.7958 1165.91 Q80.6059 1165.91 83.6615 1170.52 Q86.7402 1175.1 86.7402 1183.85 Q86.7402 1192.58 83.6615 1197.18 Q80.6059 1201.77 74.7958 1201.77 Q68.9856 1201.77 65.9069 1197.18 Q62.8514 1192.58 62.8514 1183.85 Q62.8514 1175.1 65.9069 1170.52 Q68.9856 1165.91 74.7958 1165.91 Z" fill="#000000" fill-rule="evenodd" fill-opacity="1" /><path clip-path="url(#clip7500)" d="M 0 0 M48.245 881.961 L60.7218 881.961 L60.7218 885.757 L48.245 885.757 L48.245 881.961 Z" fill="#000000" fill-rule="evenodd" fill-opacity="1" /><path clip-path="url(#clip7500)" d="M 0 0 M65.8375 862.285 L84.1939 862.285 L84.1939 866.22 L70.1199 866.22 L70.1199 874.692 Q71.1384 874.345 72.1569 874.183 Q73.1754 873.998 74.1939 873.998 Q79.9809 873.998 83.3605 877.169 Q86.7402 880.34 86.7402 885.757 Q86.7402 891.335 83.268 894.437 Q79.7958 897.516 73.4763 897.516 Q71.3004 897.516 69.0319 897.146 Q66.7866 896.775 64.3792 896.035 L64.3792 891.335 Q66.4625 892.47 68.6847 893.025 Q70.9069 893.581 73.3837 893.581 Q77.3884 893.581 79.7263 891.474 Q82.0643 889.368 82.0643 885.757 Q82.0643 882.146 79.7263 880.039 Q77.3884 877.933 73.3837 877.933 Q71.5088 877.933 69.6338 878.349 Q67.7819 878.766 65.8375 879.646 L65.8375 862.285 Z" fill="#000000" fill-rule="evenodd" fill-opacity="1" /><path clip-path="url(#clip7500)" d="M 0 0 M74.7958 561.111 Q71.1847 561.111 69.356 564.676 Q67.5504 568.218 67.5504 575.347 Q67.5504 582.454 69.356 586.018 Q71.1847 589.56 74.7958 589.56 Q78.43 589.56 80.2356 586.018 Q82.0643 582.454 82.0643 575.347 Q82.0643 568.218 80.2356 564.676 Q78.43 561.111 74.7958 561.111 M74.7958 557.407 Q80.6059 557.407 83.6615 562.014 Q86.7402 566.597 86.7402 575.347 Q86.7402 584.074 83.6615 588.68 Q80.6059 593.264 74.7958 593.264 Q68.9856 593.264 65.9069 588.68 Q62.8514 584.074 62.8514 575.347 Q62.8514 566.597 65.9069 562.014 Q68.9856 557.407 74.7958 557.407 Z" fill="#000000" fill-rule="evenodd" fill-opacity="1" /><path clip-path="url(#clip7500)" d="M 0 0 M65.8375 253.78 L84.1939 253.78 L84.1939 257.715 L70.1199 257.715 L70.1199 266.187 Q71.1384 265.84 72.1569 265.678 Q73.1754 265.493 74.1939 265.493 Q79.9809 265.493 83.3605 268.664 Q86.7402 271.836 86.7402 277.252 Q86.7402 282.831 83.268 285.933 Q79.7958 289.011 73.4763 289.011 Q71.3004 289.011 69.0319 288.641 Q66.7866 288.271 64.3792 287.53 L64.3792 282.831 Q66.4625 283.965 68.6847 284.521 Q70.9069 285.076 73.3837 285.076 Q77.3884 285.076 79.7263 282.97 Q82.0643 280.863 82.0643 277.252 Q82.0643 273.641 79.7263 271.535 Q77.3884 269.428 73.3837 269.428 Q71.5088 269.428 69.6338 269.845 Q67.7819 270.261 65.8375 271.141 L65.8375 253.78 Z" fill="#000000" fill-rule="evenodd" fill-opacity="1" /><path clip-path="url(#clip7500)" d="M 0 0 M576.048 1582.6 L585.628 1582.6 L597.755 1614.94 L609.945 1582.6 L619.526 1582.6 L619.526 1630.12 L613.256 1630.12 L613.256 1588.4 L601.002 1620.99 L594.54 1620.99 L582.286 1588.4 L582.286 1630.12 L576.048 1630.12 L576.048 1582.6 Z" fill="#000000" fill-rule="evenodd" fill-opacity="1" /><path clip-path="url(#clip7500)" d="M 0 0 M639.482 1598.58 Q634.772 1598.58 632.034 1602.27 Q629.297 1605.93 629.297 1612.33 Q629.297 1618.73 632.003 1622.42 Q634.74 1626.08 639.482 1626.08 Q644.161 1626.08 646.898 1622.39 Q649.636 1618.7 649.636 1612.33 Q649.636 1606 646.898 1602.31 Q644.161 1598.58 639.482 1598.58 M639.482 1593.62 Q647.121 1593.62 651.482 1598.58 Q655.842 1603.55 655.842 1612.33 Q655.842 1621.08 651.482 1626.08 Q647.121 1631.05 639.482 1631.05 Q631.812 1631.05 627.451 1626.08 Q623.122 1621.08 623.122 1612.33 Q623.122 1603.55 627.451 1598.58 Q631.812 1593.62 639.482 1593.62 Z" fill="#000000" fill-rule="evenodd" fill-opacity="1" /><path clip-path="url(#clip7500)" d="M 0 0 M689.74 1601.32 Q691.936 1597.37 694.991 1595.49 Q698.047 1593.62 702.184 1593.62 Q707.754 1593.62 710.778 1597.53 Q713.802 1601.41 713.802 1608.61 L713.802 1630.12 L707.914 1630.12 L707.914 1608.8 Q707.914 1603.67 706.099 1601.19 Q704.285 1598.71 700.561 1598.71 Q696.01 1598.71 693.368 1601.73 Q690.726 1604.76 690.726 1609.98 L690.726 1630.12 L684.838 1630.12 L684.838 1608.8 Q684.838 1603.64 683.024 1601.19 Q681.209 1598.71 677.422 1598.71 Q672.934 1598.71 670.292 1601.76 Q667.651 1604.79 667.651 1609.98 L667.651 1630.12 L661.762 1630.12 L661.762 1594.48 L667.651 1594.48 L667.651 1600.01 Q669.656 1596.74 672.457 1595.18 Q675.258 1593.62 679.109 1593.62 Q682.992 1593.62 685.697 1595.59 Q688.435 1597.56 689.74 1601.32 Z" fill="#000000" fill-rule="evenodd" fill-opacity="1" /><path clip-path="url(#clip7500)" d="M 0 0 M750.437 1610.84 L750.437 1613.7 L723.51 1613.7 Q723.892 1619.75 727.138 1622.93 Q730.416 1626.08 736.241 1626.08 Q739.615 1626.08 742.766 1625.25 Q745.949 1624.43 749.068 1622.77 L749.068 1628.31 Q745.917 1629.65 742.607 1630.35 Q739.297 1631.05 735.891 1631.05 Q727.361 1631.05 722.364 1626.08 Q717.399 1621.12 717.399 1612.65 Q717.399 1603.9 722.109 1598.77 Q726.852 1593.62 734.872 1593.62 Q742.066 1593.62 746.235 1598.26 Q750.437 1602.88 750.437 1610.84 M744.58 1609.12 Q744.516 1604.31 741.875 1601.45 Q739.265 1598.58 734.936 1598.58 Q730.034 1598.58 727.074 1601.35 Q724.146 1604.12 723.701 1609.15 L744.58 1609.12 Z" fill="#000000" fill-rule="evenodd" fill-opacity="1" /><path clip-path="url(#clip7500)" d="M 0 0 M786.212 1608.61 L786.212 1630.12 L780.355 1630.12 L780.355 1608.8 Q780.355 1603.74 778.382 1601.22 Q776.409 1598.71 772.462 1598.71 Q767.719 1598.71 764.982 1601.73 Q762.245 1604.76 762.245 1609.98 L762.245 1630.12 L756.357 1630.12 L756.357 1594.48 L762.245 1594.48 L762.245 1600.01 Q764.346 1596.8 767.178 1595.21 Q770.043 1593.62 773.767 1593.62 Q779.91 1593.62 783.061 1597.44 Q786.212 1601.22 786.212 1608.61 Z" fill="#000000" fill-rule="evenodd" fill-opacity="1" /><path clip-path="url(#clip7500)" d="M 0 0 M798.147 1584.35 L798.147 1594.48 L810.211 1594.48 L810.211 1599.03 L798.147 1599.03 L798.147 1618.38 Q798.147 1622.74 799.325 1623.98 Q800.535 1625.22 804.195 1625.22 L810.211 1625.22 L810.211 1630.12 L804.195 1630.12 Q797.415 1630.12 794.837 1627.61 Q792.259 1625.06 792.259 1618.38 L792.259 1599.03 L787.962 1599.03 L787.962 1594.48 L792.259 1594.48 L792.259 1584.35 L798.147 1584.35 Z" fill="#000000" fill-rule="evenodd" fill-opacity="1" /><path clip-path="url(#clip7500)" d="M 0 0 M815.749 1616.06 L815.749 1594.48 L821.605 1594.48 L821.605 1615.83 Q821.605 1620.89 823.578 1623.44 Q825.552 1625.95 829.499 1625.95 Q834.241 1625.95 836.978 1622.93 Q839.747 1619.91 839.747 1614.69 L839.747 1594.48 L845.604 1594.48 L845.604 1630.12 L839.747 1630.12 L839.747 1624.65 Q837.615 1627.9 834.782 1629.49 Q831.981 1631.05 828.257 1631.05 Q822.114 1631.05 818.932 1627.23 Q815.749 1623.41 815.749 1616.06 M830.485 1593.62 L830.485 1593.62 Z" fill="#000000" fill-rule="evenodd" fill-opacity="1" /><path clip-path="url(#clip7500)" d="M 0 0 M879.501 1601.32 Q881.697 1597.37 884.753 1595.49 Q887.808 1593.62 891.946 1593.62 Q897.516 1593.62 900.54 1597.53 Q903.564 1601.41 903.564 1608.61 L903.564 1630.12 L897.675 1630.12 L897.675 1608.8 Q897.675 1603.67 895.861 1601.19 Q894.047 1598.71 890.323 1598.71 Q885.771 1598.71 883.13 1601.73 Q880.488 1604.76 880.488 1609.98 L880.488 1630.12 L874.6 1630.12 L874.6 1608.8 Q874.6 1603.64 872.785 1601.19 Q870.971 1598.71 867.184 1598.71 Q862.696 1598.71 860.054 1601.76 Q857.412 1604.79 857.412 1609.98 L857.412 1630.12 L851.524 1630.12 L851.524 1594.48 L857.412 1594.48 L857.412 1600.01 Q859.417 1596.74 862.218 1595.18 Q865.019 1593.62 868.87 1593.62 Q872.754 1593.62 875.459 1595.59 Q878.196 1597.56 879.501 1601.32 Z" fill="#000000" fill-rule="evenodd" fill-opacity="1" /><path clip-path="url(#clip7500)" d="M 0 0 M930.427 1594.48 L936.283 1594.48 L936.283 1630.12 L930.427 1630.12 L930.427 1594.48 M930.427 1580.6 L936.283 1580.6 L936.283 1588.01 L930.427 1588.01 L930.427 1580.6 Z" fill="#000000" fill-rule="evenodd" fill-opacity="1" /><path clip-path="url(#clip7500)" d="M 0 0 M972.059 1608.61 L972.059 1630.12 L966.202 1630.12 L966.202 1608.8 Q966.202 1603.74 964.229 1601.22 Q962.255 1598.71 958.309 1598.71 Q953.566 1598.71 950.829 1601.73 Q948.092 1604.76 948.092 1609.98 L948.092 1630.12 L942.203 1630.12 L942.203 1594.48 L948.092 1594.48 L948.092 1600.01 Q950.192 1596.8 953.025 1595.21 Q955.89 1593.62 959.614 1593.62 Q965.757 1593.62 968.908 1597.44 Q972.059 1601.22 972.059 1608.61 Z" fill="#000000" fill-rule="evenodd" fill-opacity="1" /><path clip-path="url(#clip7500)" d="M 0 0 M1001.66 1599.89 L1001.66 1580.6 L1007.52 1580.6 L1007.52 1630.12 L1001.66 1630.12 L1001.66 1624.78 Q999.813 1627.96 996.98 1629.52 Q994.179 1631.05 990.233 1631.05 Q983.772 1631.05 979.697 1625.89 Q975.655 1620.73 975.655 1612.33 Q975.655 1603.93 979.697 1598.77 Q983.772 1593.62 990.233 1593.62 Q994.179 1593.62 996.98 1595.18 Q999.813 1596.7 1001.66 1599.89 M981.703 1612.33 Q981.703 1618.79 984.344 1622.48 Q987.018 1626.15 991.665 1626.15 Q996.312 1626.15 998.986 1622.48 Q1001.66 1618.79 1001.66 1612.33 Q1001.66 1605.87 998.986 1602.21 Q996.312 1598.52 991.665 1598.52 Q987.018 1598.52 984.344 1602.21 Q981.703 1605.87 981.703 1612.33 Z" fill="#000000" fill-rule="evenodd" fill-opacity="1" /><path clip-path="url(#clip7500)" d="M 0 0 M1044.15 1610.84 L1044.15 1613.7 L1017.22 1613.7 Q1017.61 1619.75 1020.85 1622.93 Q1024.13 1626.08 1029.95 1626.08 Q1033.33 1626.08 1036.48 1625.25 Q1039.66 1624.43 1042.78 1622.77 L1042.78 1628.31 Q1039.63 1629.65 1036.32 1630.35 Q1033.01 1631.05 1029.6 1631.05 Q1021.07 1631.05 1016.08 1626.08 Q1011.11 1621.12 1011.11 1612.65 Q1011.11 1603.9 1015.82 1598.77 Q1020.57 1593.62 1028.59 1593.62 Q1035.78 1593.62 1039.95 1598.26 Q1044.15 1602.88 1044.15 1610.84 M1038.29 1609.12 Q1038.23 1604.31 1035.59 1601.45 Q1032.98 1598.58 1028.65 1598.58 Q1023.75 1598.58 1020.79 1601.35 Q1017.86 1604.12 1017.41 1609.15 L1038.29 1609.12 Z" fill="#000000" fill-rule="evenodd" fill-opacity="1" /><path clip-path="url(#clip7500)" d="M 0 0 M1078.78 1594.48 L1065.89 1611.82 L1079.45 1630.12 L1072.54 1630.12 L1062.17 1616.12 L1051.79 1630.12 L1044.88 1630.12 L1058.73 1611.47 L1046.06 1594.48 L1052.97 1594.48 L1062.42 1607.18 L1071.87 1594.48 L1078.78 1594.48 Z" fill="#000000" fill-rule="evenodd" fill-opacity="1" /><path clip-path="url(#clip7500)" d="M 0 0 M-56.3133 876.639 L-56.3133 846.593 L-50.9024 846.593 L-50.9024 870.21 L-36.8342 870.21 L-36.8342 847.58 L-31.4234 847.58 L-31.4234 870.21 L-14.2041 870.21 L-14.2041 846.02 L-8.79327 846.02 L-8.79327 876.639 L-56.3133 876.639 Z" fill="#000000" fill-rule="evenodd" fill-opacity="1" /><path clip-path="url(#clip7500)" d="M 0 0 M-30.3094 810.245 L-8.79327 810.245 L-8.79327 816.101 L-30.1184 816.101 Q-35.1791 816.101 -37.6936 818.075 Q-40.208 820.048 -40.208 823.995 Q-40.208 828.737 -37.1843 831.474 Q-34.1606 834.212 -28.9407 834.212 L-8.79327 834.212 L-8.79327 840.1 L-44.4412 840.1 L-44.4412 834.212 L-38.9031 834.212 Q-42.1177 832.111 -43.7092 829.278 Q-45.3006 826.414 -45.3006 822.69 Q-45.3006 816.547 -41.4812 813.396 Q-37.6936 810.245 -30.3094 810.245 Z" fill="#000000" fill-rule="evenodd" fill-opacity="1" /><path clip-path="url(#clip7500)" d="M 0 0 M-28.0814 773.61 L-25.2168 773.61 L-25.2168 800.537 Q-19.1694 800.155 -15.9865 796.909 Q-12.8355 793.63 -12.8355 787.806 Q-12.8355 784.432 -13.663 781.281 Q-14.4906 778.098 -16.1457 774.979 L-10.6075 774.979 Q-9.2707 778.13 -8.57047 781.44 Q-7.87024 784.75 -7.87024 788.156 Q-7.87024 796.686 -12.8355 801.683 Q-17.8007 806.648 -26.2671 806.648 Q-35.02 806.648 -40.1444 801.938 Q-45.3006 797.195 -45.3006 789.174 Q-45.3006 781.981 -40.6536 777.812 Q-36.0385 773.61 -28.0814 773.61 M-29.8001 779.467 Q-34.6062 779.53 -37.4708 782.172 Q-40.3353 784.782 -40.3353 789.111 Q-40.3353 794.012 -37.5663 796.972 Q-34.7972 799.901 -29.7683 800.346 L-29.8001 779.467 Z" fill="#000000" fill-rule="evenodd" fill-opacity="1" /><path clip-path="url(#clip7500)" d="M 0 0 M-38.9667 746.811 Q-39.5396 747.797 -39.7943 748.975 Q-40.0807 750.121 -40.0807 751.521 Q-40.0807 756.486 -36.8342 759.16 Q-33.6195 761.802 -27.5721 761.802 L-8.79327 761.802 L-8.79327 767.69 L-44.4412 767.69 L-44.4412 761.802 L-38.9031 761.802 Q-42.1496 759.956 -43.7092 756.996 Q-45.3006 754.036 -45.3006 749.802 Q-45.3006 749.198 -45.2051 748.466 Q-45.1415 747.734 -44.9823 746.842 L-38.9667 746.811 Z" fill="#000000" fill-rule="evenodd" fill-opacity="1" /><path clip-path="url(#clip7500)" d="M 0 0 M-27.031 718.356 Q-33.3967 718.356 -36.8979 720.998 Q-40.399 723.608 -40.399 728.35 Q-40.399 733.061 -36.8979 735.702 Q-33.3967 738.312 -27.031 738.312 Q-20.6971 738.312 -17.196 735.702 Q-13.6949 733.061 -13.6949 728.35 Q-13.6949 723.608 -17.196 720.998 Q-20.6971 718.356 -27.031 718.356 M-13.2174 712.499 Q-4.11448 712.499 0.30969 716.542 Q4.76568 720.584 4.76568 728.923 Q4.76568 732.01 4.28826 734.748 Q3.84266 737.485 2.8878 740.063 L-2.80951 740.063 Q-1.40905 737.485 -0.740652 734.97 Q-0.0722524 732.456 -0.0722524 729.846 Q-0.0722524 724.085 -3.09596 721.22 Q-6.08785 718.356 -12.1671 718.356 L-15.0635 718.356 Q-11.9125 720.17 -10.3529 723.003 Q-8.79327 725.836 -8.79327 729.782 Q-8.79327 736.339 -13.7904 740.349 Q-18.7874 744.36 -27.031 744.36 Q-35.3064 744.36 -40.3035 740.349 Q-45.3006 736.339 -45.3006 729.782 Q-45.3006 725.836 -43.741 723.003 Q-42.1814 720.17 -39.0304 718.356 L-44.4412 718.356 L-44.4412 712.499 L-13.2174 712.499 Z" fill="#000000" fill-rule="evenodd" fill-opacity="1" /><path clip-path="url(#clip7500)" d="M 0 0 M-5.4831 691.524 Q0.882604 694.007 2.82414 696.362 Q4.76568 698.718 4.76568 702.664 L4.76568 707.343 L-0.135909 707.343 L-0.135909 703.906 Q-0.135909 701.487 -1.28174 700.15 Q-2.42756 698.813 -6.69259 697.19 L-9.36618 696.14 L-44.4412 710.558 L-44.4412 704.351 L-16.5594 693.211 L-44.4412 682.071 L-44.4412 675.865 L-5.4831 691.524 Z" fill="#000000" fill-rule="evenodd" fill-opacity="1" /><line clip-path="url(#clip7502)" x1="287.742" y1="1464" x2="207.742" y2="1464" style="stroke:#009af9; stroke-width:3.2; stroke-opacity:1"/>
<line clip-path="url(#clip7502)" x1="287.742" y1="1336.78" x2="207.742" y2="1336.78" style="stroke:#009af9; stroke-width:3.2; stroke-opacity:1"/>
<line clip-path="url(#clip7502)" x1="287.742" y1="1336.78" x2="207.742" y2="1336.78" style="stroke:#009af9; stroke-width:3.2; stroke-opacity:1"/>
<line clip-path="url(#clip7502)" x1="287.742" y1="1336.78" x2="207.742" y2="1336.78" style="stroke:#009af9; stroke-width:3.2; stroke-opacity:1"/>
<line clip-path="url(#clip7502)" x1="287.742" y1="1232.41" x2="207.742" y2="1232.41" style="stroke:#009af9; stroke-width:3.2; stroke-opacity:1"/>
<line clip-path="url(#clip7502)" x1="287.742" y1="1173.77" x2="207.742" y2="1173.77" style="stroke:#009af9; stroke-width:3.2; stroke-opacity:1"/>
<line clip-path="url(#clip7502)" x1="287.742" y1="1173.77" x2="207.742" y2="1173.77" style="stroke:#009af9; stroke-width:3.2; stroke-opacity:1"/>
<line clip-path="url(#clip7502)" x1="287.742" y1="1173.77" x2="207.742" y2="1173.77" style="stroke:#009af9; stroke-width:3.2; stroke-opacity:1"/>
<line clip-path="url(#clip7502)" x1="287.742" y1="1173.77" x2="207.742" y2="1173.77" style="stroke:#009af9; stroke-width:3.2; stroke-opacity:1"/>
<line clip-path="url(#clip7502)" x1="287.742" y1="1173.77" x2="207.742" y2="1173.77" style="stroke:#009af9; stroke-width:3.2; stroke-opacity:1"/>
<line clip-path="url(#clip7502)" x1="287.742" y1="1173.77" x2="207.742" y2="1173.77" style="stroke:#009af9; stroke-width:3.2; stroke-opacity:1"/>
<line clip-path="url(#clip7502)" x1="287.742" y1="1097.45" x2="207.742" y2="1097.45" style="stroke:#009af9; stroke-width:3.2; stroke-opacity:1"/>
<line clip-path="url(#clip7502)" x1="287.742" y1="1097.45" x2="207.742" y2="1097.45" style="stroke:#009af9; stroke-width:3.2; stroke-opacity:1"/>
<line clip-path="url(#clip7502)" x1="287.742" y1="1097.45" x2="207.742" y2="1097.45" style="stroke:#009af9; stroke-width:3.2; stroke-opacity:1"/>
<line clip-path="url(#clip7502)" x1="287.742" y1="1097.45" x2="207.742" y2="1097.45" style="stroke:#009af9; stroke-width:3.2; stroke-opacity:1"/>
<line clip-path="url(#clip7502)" x1="287.742" y1="1097.45" x2="207.742" y2="1097.45" style="stroke:#009af9; stroke-width:3.2; stroke-opacity:1"/>
<line clip-path="url(#clip7502)" x1="287.742" y1="1097.45" x2="207.742" y2="1097.45" style="stroke:#009af9; stroke-width:3.2; stroke-opacity:1"/>
<line clip-path="url(#clip7502)" x1="287.742" y1="1026.73" x2="207.742" y2="1026.73" style="stroke:#009af9; stroke-width:3.2; stroke-opacity:1"/>
<line clip-path="url(#clip7502)" x1="287.742" y1="1026.73" x2="207.742" y2="1026.73" style="stroke:#009af9; stroke-width:3.2; stroke-opacity:1"/>
<line clip-path="url(#clip7502)" x1="287.742" y1="1026.73" x2="207.742" y2="1026.73" style="stroke:#009af9; stroke-width:3.2; stroke-opacity:1"/>
<line clip-path="url(#clip7502)" x1="287.742" y1="1026.73" x2="207.742" y2="1026.73" style="stroke:#009af9; stroke-width:3.2; stroke-opacity:1"/>
<line clip-path="url(#clip7502)" x1="287.742" y1="1026.73" x2="207.742" y2="1026.73" style="stroke:#009af9; stroke-width:3.2; stroke-opacity:1"/>
<line clip-path="url(#clip7502)" x1="287.742" y1="1026.73" x2="207.742" y2="1026.73" style="stroke:#009af9; stroke-width:3.2; stroke-opacity:1"/>
<line clip-path="url(#clip7502)" x1="287.742" y1="1013.91" x2="207.742" y2="1013.91" style="stroke:#009af9; stroke-width:3.2; stroke-opacity:1"/>
<line clip-path="url(#clip7502)" x1="287.742" y1="1013.91" x2="207.742" y2="1013.91" style="stroke:#009af9; stroke-width:3.2; stroke-opacity:1"/>
<line clip-path="url(#clip7502)" x1="287.742" y1="1013.91" x2="207.742" y2="1013.91" style="stroke:#009af9; stroke-width:3.2; stroke-opacity:1"/>
<line clip-path="url(#clip7502)" x1="287.742" y1="1013.91" x2="207.742" y2="1013.91" style="stroke:#009af9; stroke-width:3.2; stroke-opacity:1"/>
<line clip-path="url(#clip7502)" x1="287.742" y1="1013.91" x2="207.742" y2="1013.91" style="stroke:#009af9; stroke-width:3.2; stroke-opacity:1"/>
<line clip-path="url(#clip7502)" x1="287.742" y1="990.825" x2="207.742" y2="990.825" style="stroke:#009af9; stroke-width:3.2; stroke-opacity:1"/>
<line clip-path="url(#clip7502)" x1="287.742" y1="990.825" x2="207.742" y2="990.825" style="stroke:#009af9; stroke-width:3.2; stroke-opacity:1"/>
<line clip-path="url(#clip7502)" x1="287.742" y1="969.145" x2="207.742" y2="969.145" style="stroke:#009af9; stroke-width:3.2; stroke-opacity:1"/>
<line clip-path="url(#clip7502)" x1="287.742" y1="969.145" x2="207.742" y2="969.145" style="stroke:#009af9; stroke-width:3.2; stroke-opacity:1"/>
<line clip-path="url(#clip7502)" x1="432.743" y1="1464" x2="352.743" y2="1464" style="stroke:#e26f46; stroke-width:3.2; stroke-opacity:1"/>
<line clip-path="url(#clip7502)" x1="432.743" y1="1013.91" x2="352.743" y2="1013.91" style="stroke:#e26f46; stroke-width:3.2; stroke-opacity:1"/>
<line clip-path="url(#clip7502)" x1="432.743" y1="818.714" x2="352.743" y2="818.714" style="stroke:#e26f46; stroke-width:3.2; stroke-opacity:1"/>
<line clip-path="url(#clip7502)" x1="432.743" y1="752.049" x2="352.743" y2="752.049" style="stroke:#e26f46; stroke-width:3.2; stroke-opacity:1"/>
<line clip-path="url(#clip7502)" x1="432.743" y1="683.636" x2="352.743" y2="683.636" style="stroke:#e26f46; stroke-width:3.2; stroke-opacity:1"/>
<line clip-path="url(#clip7502)" x1="432.743" y1="575.312" x2="352.743" y2="575.312" style="stroke:#e26f46; stroke-width:3.2; stroke-opacity:1"/>
<line clip-path="url(#clip7502)" x1="432.743" y1="575.312" x2="352.743" y2="575.312" style="stroke:#e26f46; stroke-width:3.2; stroke-opacity:1"/>
<line clip-path="url(#clip7502)" x1="432.743" y1="483.501" x2="352.743" y2="483.501" style="stroke:#e26f46; stroke-width:3.2; stroke-opacity:1"/>
<line clip-path="url(#clip7502)" x1="432.743" y1="271.795" x2="352.743" y2="271.795" style="stroke:#e26f46; stroke-width:3.2; stroke-opacity:1"/>
<line clip-path="url(#clip7502)" x1="432.743" y1="88.5087" x2="352.743" y2="88.5087" style="stroke:#e26f46; stroke-width:3.2; stroke-opacity:1"/>
<line clip-path="url(#clip7502)" x1="577.745" y1="1173.77" x2="497.745" y2="1173.77" style="stroke:#3da44d; stroke-width:3.2; stroke-opacity:1"/>
<line clip-path="url(#clip7502)" x1="577.745" y1="853.794" x2="497.745" y2="853.794" style="stroke:#3da44d; stroke-width:3.2; stroke-opacity:1"/>
<line clip-path="url(#clip7502)" x1="577.745" y1="728.261" x2="497.745" y2="728.261" style="stroke:#3da44d; stroke-width:3.2; stroke-opacity:1"/>
<line clip-path="url(#clip7502)" x1="577.745" y1="700.1" x2="497.745" y2="700.1" style="stroke:#3da44d; stroke-width:3.2; stroke-opacity:1"/>
<line clip-path="url(#clip7502)" x1="577.745" y1="646.603" x2="497.745" y2="646.603" style="stroke:#3da44d; stroke-width:3.2; stroke-opacity:1"/>
<line clip-path="url(#clip7502)" x1="577.745" y1="468.942" x2="497.745" y2="468.942" style="stroke:#3da44d; stroke-width:3.2; stroke-opacity:1"/>
<line clip-path="url(#clip7502)" x1="577.745" y1="358.029" x2="497.745" y2="358.029" style="stroke:#3da44d; stroke-width:3.2; stroke-opacity:1"/>
<line clip-path="url(#clip7502)" x1="577.745" y1="159.799" x2="497.745" y2="159.799" style="stroke:#3da44d; stroke-width:3.2; stroke-opacity:1"/>
<line clip-path="url(#clip7502)" x1="722.746" y1="1026.73" x2="642.746" y2="1026.73" style="stroke:#c271d2; stroke-width:3.2; stroke-opacity:1"/>
<line clip-path="url(#clip7502)" x1="722.746" y1="969.145" x2="642.746" y2="969.145" style="stroke:#c271d2; stroke-width:3.2; stroke-opacity:1"/>
<line clip-path="url(#clip7502)" x1="722.746" y1="883.711" x2="642.746" y2="883.711" style="stroke:#c271d2; stroke-width:3.2; stroke-opacity:1"/>
<line clip-path="url(#clip7502)" x1="722.746" y1="720.616" x2="642.746" y2="720.616" style="stroke:#c271d2; stroke-width:3.2; stroke-opacity:1"/>
<line clip-path="url(#clip7502)" x1="722.746" y1="638.269" x2="642.746" y2="638.269" style="stroke:#c271d2; stroke-width:3.2; stroke-opacity:1"/>
<line clip-path="url(#clip7502)" x1="722.746" y1="465.391" x2="642.746" y2="465.391" style="stroke:#c271d2; stroke-width:3.2; stroke-opacity:1"/>
<line clip-path="url(#clip7502)" x1="722.746" y1="424.882" x2="642.746" y2="424.882" style="stroke:#c271d2; stroke-width:3.2; stroke-opacity:1"/>
<line clip-path="url(#clip7502)" x1="722.746" y1="331.911" x2="642.746" y2="331.911" style="stroke:#c271d2; stroke-width:3.2; stroke-opacity:1"/>
<line clip-path="url(#clip7502)" x1="722.746" y1="203.957" x2="642.746" y2="203.957" style="stroke:#c271d2; stroke-width:3.2; stroke-opacity:1"/>
<line clip-path="url(#clip7502)" x1="867.748" y1="1097.45" x2="787.748" y2="1097.45" style="stroke:#ac8d18; stroke-width:3.2; stroke-opacity:1"/>
<line clip-path="url(#clip7502)" x1="867.748" y1="990.825" x2="787.748" y2="990.825" style="stroke:#ac8d18; stroke-width:3.2; stroke-opacity:1"/>
<line clip-path="url(#clip7502)" x1="867.748" y1="784.376" x2="787.748" y2="784.376" style="stroke:#ac8d18; stroke-width:3.2; stroke-opacity:1"/>
<line clip-path="url(#clip7502)" x1="867.748" y1="681.683" x2="787.748" y2="681.683" style="stroke:#ac8d18; stroke-width:3.2; stroke-opacity:1"/>
<line clip-path="url(#clip7502)" x1="867.748" y1="510.701" x2="787.748" y2="510.701" style="stroke:#ac8d18; stroke-width:3.2; stroke-opacity:1"/>
<line clip-path="url(#clip7502)" x1="867.748" y1="504.022" x2="787.748" y2="504.022" style="stroke:#ac8d18; stroke-width:3.2; stroke-opacity:1"/>
<line clip-path="url(#clip7502)" x1="867.748" y1="296.831" x2="787.748" y2="296.831" style="stroke:#ac8d18; stroke-width:3.2; stroke-opacity:1"/>
<line clip-path="url(#clip7502)" x1="867.748" y1="223.42" x2="787.748" y2="223.42" style="stroke:#ac8d18; stroke-width:3.2; stroke-opacity:1"/>
<line clip-path="url(#clip7502)" x1="1012.75" y1="1336.78" x2="932.75" y2="1336.78" style="stroke:#00a9ad; stroke-width:3.2; stroke-opacity:1"/>
<line clip-path="url(#clip7502)" x1="1012.75" y1="1232.41" x2="932.75" y2="1232.41" style="stroke:#00a9ad; stroke-width:3.2; stroke-opacity:1"/>
<line clip-path="url(#clip7502)" x1="1012.75" y1="867.794" x2="932.75" y2="867.794" style="stroke:#00a9ad; stroke-width:3.2; stroke-opacity:1"/>
<line clip-path="url(#clip7502)" x1="1012.75" y1="760.511" x2="932.75" y2="760.511" style="stroke:#00a9ad; stroke-width:3.2; stroke-opacity:1"/>
<line clip-path="url(#clip7502)" x1="1012.75" y1="575.312" x2="932.75" y2="575.312" style="stroke:#00a9ad; stroke-width:3.2; stroke-opacity:1"/>
<line clip-path="url(#clip7502)" x1="1012.75" y1="575.312" x2="932.75" y2="575.312" style="stroke:#00a9ad; stroke-width:3.2; stroke-opacity:1"/>
<line clip-path="url(#clip7502)" x1="1012.75" y1="575.312" x2="932.75" y2="575.312" style="stroke:#00a9ad; stroke-width:3.2; stroke-opacity:1"/>
<line clip-path="url(#clip7502)" x1="1012.75" y1="331.911" x2="932.75" y2="331.911" style="stroke:#00a9ad; stroke-width:3.2; stroke-opacity:1"/>
<line clip-path="url(#clip7502)" x1="1012.75" y1="251.574" x2="932.75" y2="251.574" style="stroke:#00a9ad; stroke-width:3.2; stroke-opacity:1"/>
<line clip-path="url(#clip7502)" x1="1012.75" y1="219.823" x2="932.75" y2="219.823" style="stroke:#00a9ad; stroke-width:3.2; stroke-opacity:1"/>
<line clip-path="url(#clip7502)" x1="1157.75" y1="1097.45" x2="1077.75" y2="1097.45" style="stroke:#ed5d92; stroke-width:3.2; stroke-opacity:1"/>
<line clip-path="url(#clip7502)" x1="1157.75" y1="990.825" x2="1077.75" y2="990.825" style="stroke:#ed5d92; stroke-width:3.2; stroke-opacity:1"/>
<line clip-path="url(#clip7502)" x1="1157.75" y1="784.376" x2="1077.75" y2="784.376" style="stroke:#ed5d92; stroke-width:3.2; stroke-opacity:1"/>
<line clip-path="url(#clip7502)" x1="1157.75" y1="681.683" x2="1077.75" y2="681.683" style="stroke:#ed5d92; stroke-width:3.2; stroke-opacity:1"/>
<line clip-path="url(#clip7502)" x1="1157.75" y1="510.701" x2="1077.75" y2="510.701" style="stroke:#ed5d92; stroke-width:3.2; stroke-opacity:1"/>
<line clip-path="url(#clip7502)" x1="1157.75" y1="504.022" x2="1077.75" y2="504.022" style="stroke:#ed5d92; stroke-width:3.2; stroke-opacity:1"/>
<line clip-path="url(#clip7502)" x1="1157.75" y1="296.831" x2="1077.75" y2="296.831" style="stroke:#ed5d92; stroke-width:3.2; stroke-opacity:1"/>
<line clip-path="url(#clip7502)" x1="1157.75" y1="223.42" x2="1077.75" y2="223.42" style="stroke:#ed5d92; stroke-width:3.2; stroke-opacity:1"/>
<line clip-path="url(#clip7502)" x1="1302.75" y1="1026.73" x2="1222.75" y2="1026.73" style="stroke:#c68125; stroke-width:3.2; stroke-opacity:1"/>
<line clip-path="url(#clip7502)" x1="1302.75" y1="969.145" x2="1222.75" y2="969.145" style="stroke:#c68125; stroke-width:3.2; stroke-opacity:1"/>
<line clip-path="url(#clip7502)" x1="1302.75" y1="883.711" x2="1222.75" y2="883.711" style="stroke:#c68125; stroke-width:3.2; stroke-opacity:1"/>
<line clip-path="url(#clip7502)" x1="1302.75" y1="720.616" x2="1222.75" y2="720.616" style="stroke:#c68125; stroke-width:3.2; stroke-opacity:1"/>
<line clip-path="url(#clip7502)" x1="1302.75" y1="638.269" x2="1222.75" y2="638.269" style="stroke:#c68125; stroke-width:3.2; stroke-opacity:1"/>
<line clip-path="url(#clip7502)" x1="1302.75" y1="465.391" x2="1222.75" y2="465.391" style="stroke:#c68125; stroke-width:3.2; stroke-opacity:1"/>
<line clip-path="url(#clip7502)" x1="1302.75" y1="424.882" x2="1222.75" y2="424.882" style="stroke:#c68125; stroke-width:3.2; stroke-opacity:1"/>
<line clip-path="url(#clip7502)" x1="1302.75" y1="331.911" x2="1222.75" y2="331.911" style="stroke:#c68125; stroke-width:3.2; stroke-opacity:1"/>
<line clip-path="url(#clip7502)" x1="1302.75" y1="203.957" x2="1222.75" y2="203.957" style="stroke:#c68125; stroke-width:3.2; stroke-opacity:1"/>
<line clip-path="url(#clip7502)" x1="1447.75" y1="1173.77" x2="1367.75" y2="1173.77" style="stroke:#00a98d; stroke-width:3.2; stroke-opacity:1"/>
<line clip-path="url(#clip7502)" x1="1447.75" y1="853.794" x2="1367.75" y2="853.794" style="stroke:#00a98d; stroke-width:3.2; stroke-opacity:1"/>
<line clip-path="url(#clip7502)" x1="1447.75" y1="728.261" x2="1367.75" y2="728.261" style="stroke:#00a98d; stroke-width:3.2; stroke-opacity:1"/>
<line clip-path="url(#clip7502)" x1="1447.75" y1="700.1" x2="1367.75" y2="700.1" style="stroke:#00a98d; stroke-width:3.2; stroke-opacity:1"/>
<line clip-path="url(#clip7502)" x1="1447.75" y1="646.603" x2="1367.75" y2="646.603" style="stroke:#00a98d; stroke-width:3.2; stroke-opacity:1"/>
<line clip-path="url(#clip7502)" x1="1447.75" y1="468.942" x2="1367.75" y2="468.942" style="stroke:#00a98d; stroke-width:3.2; stroke-opacity:1"/>
<line clip-path="url(#clip7502)" x1="1447.75" y1="358.029" x2="1367.75" y2="358.029" style="stroke:#00a98d; stroke-width:3.2; stroke-opacity:1"/>
<line clip-path="url(#clip7502)" x1="1447.75" y1="159.799" x2="1367.75" y2="159.799" style="stroke:#00a98d; stroke-width:3.2; stroke-opacity:1"/>
</svg>
