<?xml version="1.0" encoding="utf-8"?>
<svg xmlns="http://www.w3.org/2000/svg" xmlns:xlink="http://www.w3.org/1999/xlink" width="400" height="400" viewBox="0 0 1600 1600">
<defs>
  <clipPath id="clip760">
    <rect x="0" y="0" width="1600" height="1600"/>
  </clipPath>
</defs>
<path clip-path="url(#clip760)" d="
M0 1600 L1600 1600 L1600 0 L0 0  Z
  " fill="#ffffff" fill-rule="evenodd" fill-opacity="1"/>
<defs>
  <clipPath id="clip761">
    <rect x="320" y="160" width="1121" height="1121"/>
  </clipPath>
</defs>
<path clip-path="url(#clip760)" d="
M94.7402 1505.26 L1552.76 1505.26 L1552.76 47.2441 L94.7402 47.2441  Z
  " fill="#ffffff" fill-rule="evenodd" fill-opacity="1"/>
<defs>
  <clipPath id="clip762">
    <rect x="94" y="47" width="1459" height="1459"/>
  </clipPath>
</defs>
<polyline clip-path="url(#clip762)" style="stroke:#000000; stroke-width:2; stroke-opacity:0.1; fill:none" points="
  240.542,1505.26 240.542,47.2441 
  "/>
<polyline clip-path="url(#clip762)" style="stroke:#000000; stroke-width:2; stroke-opacity:0.1; fill:none" points="
  386.343,1505.26 386.343,47.2441 
  "/>
<polyline clip-path="url(#clip762)" style="stroke:#000000; stroke-width:2; stroke-opacity:0.1; fill:none" points="
  532.145,1505.26 532.145,47.2441 
  "/>
<polyline clip-path="url(#clip762)" style="stroke:#000000; stroke-width:2; stroke-opacity:0.1; fill:none" points="
  677.946,1505.26 677.946,47.2441 
  "/>
<polyline clip-path="url(#clip762)" style="stroke:#000000; stroke-width:2; stroke-opacity:0.1; fill:none" points="
  823.748,1505.26 823.748,47.2441 
  "/>
<polyline clip-path="url(#clip762)" style="stroke:#000000; stroke-width:2; stroke-opacity:0.1; fill:none" points="
  969.55,1505.26 969.55,47.2441 
  "/>
<polyline clip-path="url(#clip762)" style="stroke:#000000; stroke-width:2; stroke-opacity:0.1; fill:none" points="
  1115.35,1505.26 1115.35,47.2441 
  "/>
<polyline clip-path="url(#clip762)" style="stroke:#000000; stroke-width:2; stroke-opacity:0.1; fill:none" points="
  1261.15,1505.26 1261.15,47.2441 
  "/>
<polyline clip-path="url(#clip762)" style="stroke:#000000; stroke-width:2; stroke-opacity:0.1; fill:none" points="
  1406.95,1505.26 1406.95,47.2441 
  "/>
<polyline clip-path="url(#clip762)" style="stroke:#000000; stroke-width:2; stroke-opacity:0.1; fill:none" points="
  94.7402,1488.07 1552.76,1488.07 
  "/>
<polyline clip-path="url(#clip762)" style="stroke:#000000; stroke-width:2; stroke-opacity:0.1; fill:none" points="
  94.7402,1183.82 1552.76,1183.82 
  "/>
<polyline clip-path="url(#clip762)" style="stroke:#000000; stroke-width:2; stroke-opacity:0.1; fill:none" points="
  94.7402,879.565 1552.76,879.565 
  "/>
<polyline clip-path="url(#clip762)" style="stroke:#000000; stroke-width:2; stroke-opacity:0.1; fill:none" points="
  94.7402,575.312 1552.76,575.312 
  "/>
<polyline clip-path="url(#clip762)" style="stroke:#000000; stroke-width:2; stroke-opacity:0.1; fill:none" points="
  94.7402,271.06 1552.76,271.06 
  "/>
<polyline clip-path="url(#clip760)" style="stroke:#000000; stroke-width:4; stroke-opacity:1; fill:none" points="
  94.7402,1505.26 1552.76,1505.26 
  "/>
<polyline clip-path="url(#clip760)" style="stroke:#000000; stroke-width:4; stroke-opacity:1; fill:none" points="
  94.7402,1505.26 94.7402,47.2441 
  "/>
<polyline clip-path="url(#clip760)" style="stroke:#000000; stroke-width:4; stroke-opacity:1; fill:none" points="
  240.542,1505.26 240.542,1487.76 
  "/>
<polyline clip-path="url(#clip760)" style="stroke:#000000; stroke-width:4; stroke-opacity:1; fill:none" points="
  386.343,1505.26 386.343,1487.76 
  "/>
<polyline clip-path="url(#clip760)" style="stroke:#000000; stroke-width:4; stroke-opacity:1; fill:none" points="
  532.145,1505.26 532.145,1487.76 
  "/>
<polyline clip-path="url(#clip760)" style="stroke:#000000; stroke-width:4; stroke-opacity:1; fill:none" points="
  677.946,1505.26 677.946,1487.76 
  "/>
<polyline clip-path="url(#clip760)" style="stroke:#000000; stroke-width:4; stroke-opacity:1; fill:none" points="
  823.748,1505.26 823.748,1487.76 
  "/>
<polyline clip-path="url(#clip760)" style="stroke:#000000; stroke-width:4; stroke-opacity:1; fill:none" points="
  969.55,1505.26 969.55,1487.76 
  "/>
<polyline clip-path="url(#clip760)" style="stroke:#000000; stroke-width:4; stroke-opacity:1; fill:none" points="
  1115.35,1505.26 1115.35,1487.76 
  "/>
<polyline clip-path="url(#clip760)" style="stroke:#000000; stroke-width:4; stroke-opacity:1; fill:none" points="
  1261.15,1505.26 1261.15,1487.76 
  "/>
<polyline clip-path="url(#clip760)" style="stroke:#000000; stroke-width:4; stroke-opacity:1; fill:none" points="
  1406.95,1505.26 1406.95,1487.76 
  "/>
<polyline clip-path="url(#clip760)" style="stroke:#000000; stroke-width:4; stroke-opacity:1; fill:none" points="
  94.7402,1488.07 112.236,1488.07 
  "/>
<polyline clip-path="url(#clip760)" style="stroke:#000000; stroke-width:4; stroke-opacity:1; fill:none" points="
  94.7402,1183.82 112.236,1183.82 
  "/>
<polyline clip-path="url(#clip760)" style="stroke:#000000; stroke-width:4; stroke-opacity:1; fill:none" points="
  94.7402,879.565 112.236,879.565 
  "/>
<polyline clip-path="url(#clip760)" style="stroke:#000000; stroke-width:4; stroke-opacity:1; fill:none" points="
  94.7402,575.312 112.236,575.312 
  "/>
<polyline clip-path="url(#clip760)" style="stroke:#000000; stroke-width:4; stroke-opacity:1; fill:none" points="
  94.7402,271.06 112.236,271.06 
  "/>
<path clip-path="url(#clip760)" d="M 0 0 M231.815 1524.78 L225.472 1541.98 L238.181 1541.98 L231.815 1524.78 M229.176 1520.17 L234.477 1520.17 L247.648 1554.73 L242.787 1554.73 L239.639 1545.87 L224.06 1545.87 L220.912 1554.73 L215.982 1554.73 L229.176 1520.17 Z" fill="#000000" fill-rule="evenodd" fill-opacity="1" /><path clip-path="url(#clip760)" d="M 0 0 M252.116 1518.71 L256.375 1518.71 L256.375 1554.73 L252.116 1554.73 L252.116 1518.71 Z" fill="#000000" fill-rule="evenodd" fill-opacity="1" /><path clip-path="url(#clip760)" d="M 0 0 M260.843 1518.71 L265.102 1518.71 L265.102 1554.73 L260.843 1554.73 L260.843 1518.71 Z" fill="#000000" fill-rule="evenodd" fill-opacity="1" /><path clip-path="url(#clip760)" d="M 0 0 M376.725 1550.8 L384.364 1550.8 L384.364 1524.43 L376.054 1526.1 L376.054 1521.84 L384.318 1520.17 L388.994 1520.17 L388.994 1550.8 L396.633 1550.8 L396.633 1554.73 L376.725 1554.73 L376.725 1550.8 Z" fill="#000000" fill-rule="evenodd" fill-opacity="1" /><path clip-path="url(#clip760)" d="M 0 0 M526.798 1550.8 L543.117 1550.8 L543.117 1554.73 L521.173 1554.73 L521.173 1550.8 Q523.835 1548.04 528.418 1543.41 Q533.025 1538.76 534.205 1537.42 Q536.45 1534.89 537.33 1533.16 Q538.233 1531.4 538.233 1529.71 Q538.233 1526.95 536.288 1525.22 Q534.367 1523.48 531.265 1523.48 Q529.066 1523.48 526.613 1524.25 Q524.182 1525.01 521.404 1526.56 L521.404 1521.84 Q524.228 1520.7 526.682 1520.13 Q529.136 1519.55 531.173 1519.55 Q536.543 1519.55 539.737 1522.23 Q542.932 1524.92 542.932 1529.41 Q542.932 1531.54 542.122 1533.46 Q541.335 1535.36 539.228 1537.95 Q538.649 1538.62 535.548 1541.84 Q532.446 1545.03 526.798 1550.8 Z" fill="#000000" fill-rule="evenodd" fill-opacity="1" /><path clip-path="url(#clip760)" d="M 0 0 M682.194 1536.1 Q685.551 1536.82 687.426 1539.08 Q689.324 1541.35 689.324 1544.69 Q689.324 1549.8 685.805 1552.6 Q682.287 1555.4 675.805 1555.4 Q673.629 1555.4 671.315 1554.96 Q669.023 1554.55 666.569 1553.69 L666.569 1549.18 Q668.514 1550.31 670.828 1550.89 Q673.143 1551.47 675.666 1551.47 Q680.065 1551.47 682.356 1549.73 Q684.671 1548 684.671 1544.69 Q684.671 1541.63 682.518 1539.92 Q680.389 1538.18 676.569 1538.18 L672.541 1538.18 L672.541 1534.34 L676.754 1534.34 Q680.203 1534.34 682.032 1532.97 Q683.861 1531.58 683.861 1528.99 Q683.861 1526.33 681.963 1524.92 Q680.088 1523.48 676.569 1523.48 Q674.648 1523.48 672.449 1523.9 Q670.25 1524.32 667.611 1525.19 L667.611 1521.03 Q670.273 1520.29 672.588 1519.92 Q674.926 1519.55 676.986 1519.55 Q682.31 1519.55 685.412 1521.98 Q688.514 1524.38 688.514 1528.51 Q688.514 1531.38 686.87 1533.37 Q685.227 1535.33 682.194 1536.1 Z" fill="#000000" fill-rule="evenodd" fill-opacity="1" /><path clip-path="url(#clip760)" d="M 0 0 M826.757 1524.25 L814.952 1542.69 L826.757 1542.69 L826.757 1524.25 M825.53 1520.17 L831.41 1520.17 L831.41 1542.69 L836.341 1542.69 L836.341 1546.58 L831.41 1546.58 L831.41 1554.73 L826.757 1554.73 L826.757 1546.58 L811.156 1546.58 L811.156 1542.07 L825.53 1520.17 Z" fill="#000000" fill-rule="evenodd" fill-opacity="1" /><path clip-path="url(#clip760)" d="M 0 0 M959.827 1520.17 L978.184 1520.17 L978.184 1524.11 L964.11 1524.11 L964.11 1532.58 Q965.128 1532.23 966.147 1532.07 Q967.165 1531.88 968.184 1531.88 Q973.971 1531.88 977.35 1535.06 Q980.73 1538.23 980.73 1543.64 Q980.73 1549.22 977.258 1552.32 Q973.786 1555.4 967.466 1555.4 Q965.29 1555.4 963.022 1555.03 Q960.777 1554.66 958.369 1553.92 L958.369 1549.22 Q960.452 1550.36 962.675 1550.91 Q964.897 1551.47 967.374 1551.47 Q971.378 1551.47 973.716 1549.36 Q976.054 1547.26 976.054 1543.64 Q976.054 1540.03 973.716 1537.93 Q971.378 1535.82 967.374 1535.82 Q965.499 1535.82 963.624 1536.24 Q961.772 1536.65 959.827 1537.53 L959.827 1520.17 Z" fill="#000000" fill-rule="evenodd" fill-opacity="1" /><path clip-path="url(#clip760)" d="M 0 0 M1115.76 1535.59 Q1112.61 1535.59 1110.76 1537.74 Q1108.93 1539.89 1108.93 1543.64 Q1108.93 1547.37 1110.76 1549.55 Q1112.61 1551.7 1115.76 1551.7 Q1118.9 1551.7 1120.73 1549.55 Q1122.58 1547.37 1122.58 1543.64 Q1122.58 1539.89 1120.73 1537.74 Q1118.9 1535.59 1115.76 1535.59 M1125.04 1520.94 L1125.04 1525.19 Q1123.28 1524.36 1121.47 1523.92 Q1119.69 1523.48 1117.93 1523.48 Q1113.3 1523.48 1110.85 1526.61 Q1108.42 1529.73 1108.07 1536.05 Q1109.44 1534.04 1111.5 1532.97 Q1113.56 1531.88 1116.03 1531.88 Q1121.24 1531.88 1124.25 1535.06 Q1127.28 1538.2 1127.28 1543.64 Q1127.28 1548.97 1124.14 1552.19 Q1120.99 1555.4 1115.76 1555.4 Q1109.76 1555.4 1106.59 1550.82 Q1103.42 1546.21 1103.42 1537.49 Q1103.42 1529.29 1107.31 1524.43 Q1111.2 1519.55 1117.75 1519.55 Q1119.51 1519.55 1121.29 1519.89 Q1123.09 1520.24 1125.04 1520.94 Z" fill="#000000" fill-rule="evenodd" fill-opacity="1" /><path clip-path="url(#clip760)" d="M 0 0 M1250.04 1520.17 L1272.26 1520.17 L1272.26 1522.16 L1259.72 1554.73 L1254.83 1554.73 L1266.64 1524.11 L1250.04 1524.11 L1250.04 1520.17 Z" fill="#000000" fill-rule="evenodd" fill-opacity="1" /><path clip-path="url(#clip760)" d="M 0 0 M1406.95 1538.32 Q1403.62 1538.32 1401.7 1540.1 Q1399.8 1541.88 1399.8 1545.01 Q1399.8 1548.13 1401.7 1549.92 Q1403.62 1551.7 1406.95 1551.7 Q1410.29 1551.7 1412.21 1549.92 Q1414.13 1548.11 1414.13 1545.01 Q1414.13 1541.88 1412.21 1540.1 Q1410.31 1538.32 1406.95 1538.32 M1402.28 1536.33 Q1399.27 1535.59 1397.58 1533.53 Q1395.91 1531.47 1395.91 1528.51 Q1395.91 1524.36 1398.85 1521.95 Q1401.82 1519.55 1406.95 1519.55 Q1412.12 1519.55 1415.06 1521.95 Q1418 1524.36 1418 1528.51 Q1418 1531.47 1416.31 1533.53 Q1414.64 1535.59 1411.65 1536.33 Q1415.03 1537.12 1416.91 1539.41 Q1418.81 1541.7 1418.81 1545.01 Q1418.81 1550.03 1415.73 1552.72 Q1412.67 1555.4 1406.95 1555.4 Q1401.24 1555.4 1398.16 1552.72 Q1395.1 1550.03 1395.1 1545.01 Q1395.1 1541.7 1397 1539.41 Q1398.9 1537.12 1402.28 1536.33 M1400.57 1528.94 Q1400.57 1531.63 1402.23 1533.13 Q1403.92 1534.64 1406.95 1534.64 Q1409.96 1534.64 1411.65 1533.13 Q1413.37 1531.63 1413.37 1528.94 Q1413.37 1526.26 1411.65 1524.76 Q1409.96 1523.25 1406.95 1523.25 Q1403.92 1523.25 1402.23 1524.76 Q1400.57 1526.26 1400.57 1528.94 Z" fill="#000000" fill-rule="evenodd" fill-opacity="1" /><path clip-path="url(#clip760)" d="M 0 0 M14.4581 1490.47 L26.9349 1490.47 L26.9349 1494.26 L14.4581 1494.26 L14.4581 1490.47 Z" fill="#000000" fill-rule="evenodd" fill-opacity="1" /><path clip-path="url(#clip760)" d="M 0 0 M32.8145 1501.41 L40.4533 1501.41 L40.4533 1475.05 L32.1432 1476.72 L32.1432 1472.46 L40.407 1470.79 L45.0829 1470.79 L45.0829 1501.41 L52.7218 1501.41 L52.7218 1505.35 L32.8145 1505.35 L32.8145 1501.41 Z" fill="#000000" fill-rule="evenodd" fill-opacity="1" /><path clip-path="url(#clip760)" d="M 0 0 M57.8375 1470.79 L76.1939 1470.79 L76.1939 1474.72 L62.1199 1474.72 L62.1199 1483.2 Q63.1384 1482.85 64.1569 1482.69 Q65.1754 1482.5 66.1939 1482.5 Q71.9809 1482.5 75.3605 1485.67 Q78.7402 1488.84 78.7402 1494.26 Q78.7402 1499.84 75.268 1502.94 Q71.7958 1506.02 65.4763 1506.02 Q63.3004 1506.02 61.0319 1505.65 Q58.7866 1505.28 56.3792 1504.54 L56.3792 1499.84 Q58.4625 1500.97 60.6847 1501.53 Q62.9069 1502.09 65.3837 1502.09 Q69.3884 1502.09 71.7263 1499.98 Q74.0643 1497.87 74.0643 1494.26 Q74.0643 1490.65 71.7263 1488.54 Q69.3884 1486.44 65.3837 1486.44 Q63.5088 1486.44 61.6338 1486.85 Q59.7819 1487.27 57.8375 1488.15 L57.8375 1470.79 Z" fill="#000000" fill-rule="evenodd" fill-opacity="1" /><path clip-path="url(#clip760)" d="M 0 0 M13.4627 1186.21 L25.9395 1186.21 L25.9395 1190.01 L13.4627 1190.01 L13.4627 1186.21 Z" fill="#000000" fill-rule="evenodd" fill-opacity="1" /><path clip-path="url(#clip760)" d="M 0 0 M31.8191 1197.16 L39.458 1197.16 L39.458 1170.8 L31.1478 1172.46 L31.1478 1168.2 L39.4117 1166.54 L44.0876 1166.54 L44.0876 1197.16 L51.7264 1197.16 L51.7264 1201.1 L31.8191 1201.1 L31.8191 1197.16 Z" fill="#000000" fill-rule="evenodd" fill-opacity="1" /><path clip-path="url(#clip760)" d="M 0 0 M66.7958 1169.62 Q63.1847 1169.62 61.356 1173.18 Q59.5504 1176.72 59.5504 1183.85 Q59.5504 1190.96 61.356 1194.52 Q63.1847 1198.06 66.7958 1198.06 Q70.43 1198.06 72.2356 1194.52 Q74.0643 1190.96 74.0643 1183.85 Q74.0643 1176.72 72.2356 1173.18 Q70.43 1169.62 66.7958 1169.62 M66.7958 1165.91 Q72.6059 1165.91 75.6615 1170.52 Q78.7402 1175.1 78.7402 1183.85 Q78.7402 1192.58 75.6615 1197.18 Q72.6059 1201.77 66.7958 1201.77 Q60.9856 1201.77 57.9069 1197.18 Q54.8514 1192.58 54.8514 1183.85 Q54.8514 1175.1 57.9069 1170.52 Q60.9856 1165.91 66.7958 1165.91 Z" fill="#000000" fill-rule="evenodd" fill-opacity="1" /><path clip-path="url(#clip760)" d="M 0 0 M40.245 881.961 L52.7218 881.961 L52.7218 885.757 L40.245 885.757 L40.245 881.961 Z" fill="#000000" fill-rule="evenodd" fill-opacity="1" /><path clip-path="url(#clip760)" d="M 0 0 M57.8375 862.285 L76.1939 862.285 L76.1939 866.22 L62.1199 866.22 L62.1199 874.692 Q63.1384 874.345 64.1569 874.183 Q65.1754 873.998 66.1939 873.998 Q71.9809 873.998 75.3605 877.169 Q78.7402 880.34 78.7402 885.757 Q78.7402 891.335 75.268 894.437 Q71.7958 897.516 65.4763 897.516 Q63.3004 897.516 61.0319 897.146 Q58.7866 896.775 56.3792 896.035 L56.3792 891.335 Q58.4625 892.47 60.6847 893.025 Q62.9069 893.581 65.3837 893.581 Q69.3884 893.581 71.7263 891.474 Q74.0643 889.368 74.0643 885.757 Q74.0643 882.146 71.7263 880.039 Q69.3884 877.933 65.3837 877.933 Q63.5088 877.933 61.6338 878.349 Q59.7819 878.766 57.8375 879.646 L57.8375 862.285 Z" fill="#000000" fill-rule="evenodd" fill-opacity="1" /><path clip-path="url(#clip760)" d="M 0 0 M66.7958 561.111 Q63.1847 561.111 61.356 564.676 Q59.5504 568.218 59.5504 575.347 Q59.5504 582.454 61.356 586.018 Q63.1847 589.56 66.7958 589.56 Q70.43 589.56 72.2356 586.018 Q74.0643 582.454 74.0643 575.347 Q74.0643 568.218 72.2356 564.676 Q70.43 561.111 66.7958 561.111 M66.7958 557.407 Q72.6059 557.407 75.6615 562.014 Q78.7402 566.597 78.7402 575.347 Q78.7402 584.074 75.6615 588.68 Q72.6059 593.264 66.7958 593.264 Q60.9856 593.264 57.9069 588.68 Q54.8514 584.074 54.8514 575.347 Q54.8514 566.597 57.9069 562.014 Q60.9856 557.407 66.7958 557.407 Z" fill="#000000" fill-rule="evenodd" fill-opacity="1" /><path clip-path="url(#clip760)" d="M 0 0 M57.8375 253.78 L76.1939 253.78 L76.1939 257.715 L62.1199 257.715 L62.1199 266.187 Q63.1384 265.84 64.1569 265.678 Q65.1754 265.493 66.1939 265.493 Q71.9809 265.493 75.3605 268.664 Q78.7402 271.836 78.7402 277.252 Q78.7402 282.831 75.268 285.933 Q71.7958 289.011 65.4763 289.011 Q63.3004 289.011 61.0319 288.641 Q58.7866 288.271 56.3792 287.53 L56.3792 282.831 Q58.4625 283.965 60.6847 284.521 Q62.9069 285.076 65.3837 285.076 Q69.3884 285.076 71.7263 282.97 Q74.0643 280.863 74.0643 277.252 Q74.0643 273.641 71.7263 271.535 Q69.3884 269.428 65.3837 269.428 Q63.5088 269.428 61.6338 269.845 Q59.7819 270.261 57.8375 271.141 L57.8375 253.78 Z" fill="#000000" fill-rule="evenodd" fill-opacity="1" /><path clip-path="url(#clip760)" d="M 0 0 M572.048 1582.6 L581.628 1582.6 L593.755 1614.94 L605.945 1582.6 L615.526 1582.6 L615.526 1630.12 L609.256 1630.12 L609.256 1588.4 L597.002 1620.99 L590.54 1620.99 L578.286 1588.4 L578.286 1630.12 L572.048 1630.12 L572.048 1582.6 Z" fill="#000000" fill-rule="evenodd" fill-opacity="1" /><path clip-path="url(#clip760)" d="M 0 0 M635.482 1598.58 Q630.772 1598.58 628.034 1602.27 Q625.297 1605.93 625.297 1612.33 Q625.297 1618.73 628.003 1622.42 Q630.74 1626.08 635.482 1626.08 Q640.161 1626.08 642.898 1622.39 Q645.636 1618.7 645.636 1612.33 Q645.636 1606 642.898 1602.31 Q640.161 1598.58 635.482 1598.58 M635.482 1593.62 Q643.121 1593.62 647.482 1598.58 Q651.842 1603.55 651.842 1612.33 Q651.842 1621.08 647.482 1626.08 Q643.121 1631.05 635.482 1631.05 Q627.812 1631.05 623.451 1626.08 Q619.122 1621.08 619.122 1612.33 Q619.122 1603.55 623.451 1598.58 Q627.812 1593.62 635.482 1593.62 Z" fill="#000000" fill-rule="evenodd" fill-opacity="1" /><path clip-path="url(#clip760)" d="M 0 0 M685.74 1601.32 Q687.936 1597.37 690.991 1595.49 Q694.047 1593.62 698.184 1593.62 Q703.754 1593.62 706.778 1597.53 Q709.802 1601.41 709.802 1608.61 L709.802 1630.12 L703.914 1630.12 L703.914 1608.8 Q703.914 1603.67 702.099 1601.19 Q700.285 1598.71 696.561 1598.71 Q692.01 1598.71 689.368 1601.73 Q686.726 1604.76 686.726 1609.98 L686.726 1630.12 L680.838 1630.12 L680.838 1608.8 Q680.838 1603.64 679.024 1601.19 Q677.209 1598.71 673.422 1598.71 Q668.934 1598.71 666.292 1601.76 Q663.651 1604.79 663.651 1609.98 L663.651 1630.12 L657.762 1630.12 L657.762 1594.48 L663.651 1594.48 L663.651 1600.01 Q665.656 1596.74 668.457 1595.18 Q671.258 1593.62 675.109 1593.62 Q678.992 1593.62 681.697 1595.59 Q684.435 1597.56 685.74 1601.32 Z" fill="#000000" fill-rule="evenodd" fill-opacity="1" /><path clip-path="url(#clip760)" d="M 0 0 M746.437 1610.84 L746.437 1613.7 L719.51 1613.7 Q719.892 1619.75 723.138 1622.93 Q726.416 1626.08 732.241 1626.08 Q735.615 1626.08 738.766 1625.25 Q741.949 1624.43 745.068 1622.77 L745.068 1628.31 Q741.917 1629.65 738.607 1630.35 Q735.297 1631.05 731.891 1631.05 Q723.361 1631.05 718.364 1626.08 Q713.399 1621.12 713.399 1612.65 Q713.399 1603.9 718.109 1598.77 Q722.852 1593.62 730.872 1593.62 Q738.066 1593.62 742.235 1598.26 Q746.437 1602.88 746.437 1610.84 M740.58 1609.12 Q740.516 1604.31 737.875 1601.45 Q735.265 1598.58 730.936 1598.58 Q726.034 1598.58 723.074 1601.35 Q720.146 1604.12 719.701 1609.15 L740.58 1609.12 Z" fill="#000000" fill-rule="evenodd" fill-opacity="1" /><path clip-path="url(#clip760)" d="M 0 0 M782.212 1608.61 L782.212 1630.12 L776.355 1630.12 L776.355 1608.8 Q776.355 1603.74 774.382 1601.22 Q772.409 1598.71 768.462 1598.71 Q763.719 1598.71 760.982 1601.73 Q758.245 1604.76 758.245 1609.98 L758.245 1630.12 L752.357 1630.12 L752.357 1594.48 L758.245 1594.48 L758.245 1600.01 Q760.346 1596.8 763.178 1595.21 Q766.043 1593.62 769.767 1593.62 Q775.91 1593.62 779.061 1597.44 Q782.212 1601.22 782.212 1608.61 Z" fill="#000000" fill-rule="evenodd" fill-opacity="1" /><path clip-path="url(#clip760)" d="M 0 0 M794.147 1584.35 L794.147 1594.48 L806.211 1594.48 L806.211 1599.03 L794.147 1599.03 L794.147 1618.38 Q794.147 1622.74 795.325 1623.98 Q796.535 1625.22 800.195 1625.22 L806.211 1625.22 L806.211 1630.12 L800.195 1630.12 Q793.415 1630.12 790.837 1627.61 Q788.259 1625.06 788.259 1618.38 L788.259 1599.03 L783.962 1599.03 L783.962 1594.48 L788.259 1594.48 L788.259 1584.35 L794.147 1584.35 Z" fill="#000000" fill-rule="evenodd" fill-opacity="1" /><path clip-path="url(#clip760)" d="M 0 0 M811.749 1616.06 L811.749 1594.48 L817.605 1594.48 L817.605 1615.83 Q817.605 1620.89 819.578 1623.44 Q821.552 1625.95 825.499 1625.95 Q830.241 1625.95 832.978 1622.93 Q835.747 1619.91 835.747 1614.69 L835.747 1594.48 L841.604 1594.48 L841.604 1630.12 L835.747 1630.12 L835.747 1624.65 Q833.615 1627.9 830.782 1629.49 Q827.981 1631.05 824.257 1631.05 Q818.114 1631.05 814.932 1627.23 Q811.749 1623.41 811.749 1616.06 M826.485 1593.62 L826.485 1593.62 Z" fill="#000000" fill-rule="evenodd" fill-opacity="1" /><path clip-path="url(#clip760)" d="M 0 0 M875.501 1601.32 Q877.697 1597.37 880.753 1595.49 Q883.808 1593.62 887.946 1593.62 Q893.516 1593.62 896.54 1597.53 Q899.564 1601.41 899.564 1608.61 L899.564 1630.12 L893.675 1630.12 L893.675 1608.8 Q893.675 1603.67 891.861 1601.19 Q890.047 1598.71 886.323 1598.71 Q881.771 1598.71 879.13 1601.73 Q876.488 1604.76 876.488 1609.98 L876.488 1630.12 L870.6 1630.12 L870.6 1608.8 Q870.6 1603.64 868.785 1601.19 Q866.971 1598.71 863.184 1598.71 Q858.696 1598.71 856.054 1601.76 Q853.412 1604.79 853.412 1609.98 L853.412 1630.12 L847.524 1630.12 L847.524 1594.48 L853.412 1594.48 L853.412 1600.01 Q855.417 1596.74 858.218 1595.18 Q861.019 1593.62 864.87 1593.62 Q868.754 1593.62 871.459 1595.59 Q874.196 1597.56 875.501 1601.32 Z" fill="#000000" fill-rule="evenodd" fill-opacity="1" /><path clip-path="url(#clip760)" d="M 0 0 M926.427 1594.48 L932.283 1594.48 L932.283 1630.12 L926.427 1630.12 L926.427 1594.48 M926.427 1580.6 L932.283 1580.6 L932.283 1588.01 L926.427 1588.01 L926.427 1580.6 Z" fill="#000000" fill-rule="evenodd" fill-opacity="1" /><path clip-path="url(#clip760)" d="M 0 0 M968.059 1608.61 L968.059 1630.12 L962.202 1630.12 L962.202 1608.8 Q962.202 1603.74 960.229 1601.22 Q958.255 1598.71 954.309 1598.71 Q949.566 1598.71 946.829 1601.73 Q944.092 1604.76 944.092 1609.98 L944.092 1630.12 L938.203 1630.12 L938.203 1594.48 L944.092 1594.48 L944.092 1600.01 Q946.192 1596.8 949.025 1595.21 Q951.89 1593.62 955.614 1593.62 Q961.757 1593.62 964.908 1597.44 Q968.059 1601.22 968.059 1608.61 Z" fill="#000000" fill-rule="evenodd" fill-opacity="1" /><path clip-path="url(#clip760)" d="M 0 0 M997.659 1599.89 L997.659 1580.6 L1003.52 1580.6 L1003.52 1630.12 L997.659 1630.12 L997.659 1624.78 Q995.813 1627.96 992.98 1629.52 Q990.179 1631.05 986.233 1631.05 Q979.772 1631.05 975.697 1625.89 Q971.655 1620.73 971.655 1612.33 Q971.655 1603.93 975.697 1598.77 Q979.772 1593.62 986.233 1593.62 Q990.179 1593.62 992.98 1595.18 Q995.813 1596.7 997.659 1599.89 M977.703 1612.33 Q977.703 1618.79 980.344 1622.48 Q983.018 1626.15 987.665 1626.15 Q992.312 1626.15 994.986 1622.48 Q997.659 1618.79 997.659 1612.33 Q997.659 1605.87 994.986 1602.21 Q992.312 1598.52 987.665 1598.52 Q983.018 1598.52 980.344 1602.21 Q977.703 1605.87 977.703 1612.33 Z" fill="#000000" fill-rule="evenodd" fill-opacity="1" /><path clip-path="url(#clip760)" d="M 0 0 M1040.15 1610.84 L1040.15 1613.7 L1013.22 1613.7 Q1013.61 1619.75 1016.85 1622.93 Q1020.13 1626.08 1025.95 1626.08 Q1029.33 1626.08 1032.48 1625.25 Q1035.66 1624.43 1038.78 1622.77 L1038.78 1628.31 Q1035.63 1629.65 1032.32 1630.35 Q1029.01 1631.05 1025.6 1631.05 Q1017.07 1631.05 1012.08 1626.08 Q1007.11 1621.12 1007.11 1612.65 Q1007.11 1603.9 1011.82 1598.77 Q1016.57 1593.62 1024.59 1593.62 Q1031.78 1593.62 1035.95 1598.26 Q1040.15 1602.88 1040.15 1610.84 M1034.29 1609.12 Q1034.23 1604.31 1031.59 1601.45 Q1028.98 1598.58 1024.65 1598.58 Q1019.75 1598.58 1016.79 1601.35 Q1013.86 1604.12 1013.41 1609.15 L1034.29 1609.12 Z" fill="#000000" fill-rule="evenodd" fill-opacity="1" /><path clip-path="url(#clip760)" d="M 0 0 M1074.78 1594.48 L1061.89 1611.82 L1075.45 1630.12 L1068.54 1630.12 L1058.17 1616.12 L1047.79 1630.12 L1040.88 1630.12 L1054.73 1611.47 L1042.06 1594.48 L1048.97 1594.48 L1058.42 1607.18 L1067.87 1594.48 L1074.78 1594.48 Z" fill="#000000" fill-rule="evenodd" fill-opacity="1" /><path clip-path="url(#clip760)" d="M 0 0 M-64.3133 876.639 L-64.3133 846.593 L-58.9024 846.593 L-58.9024 870.21 L-44.8342 870.21 L-44.8342 847.58 L-39.4234 847.58 L-39.4234 870.21 L-22.2041 870.21 L-22.2041 846.02 L-16.7933 846.02 L-16.7933 876.639 L-64.3133 876.639 Z" fill="#000000" fill-rule="evenodd" fill-opacity="1" /><path clip-path="url(#clip760)" d="M 0 0 M-38.3094 810.245 L-16.7933 810.245 L-16.7933 816.101 L-38.1184 816.101 Q-43.1791 816.101 -45.6936 818.075 Q-48.208 820.048 -48.208 823.995 Q-48.208 828.737 -45.1843 831.474 Q-42.1606 834.212 -36.9407 834.212 L-16.7933 834.212 L-16.7933 840.1 L-52.4412 840.1 L-52.4412 834.212 L-46.9031 834.212 Q-50.1177 832.111 -51.7092 829.278 Q-53.3006 826.414 -53.3006 822.69 Q-53.3006 816.547 -49.4812 813.396 Q-45.6936 810.245 -38.3094 810.245 Z" fill="#000000" fill-rule="evenodd" fill-opacity="1" /><path clip-path="url(#clip760)" d="M 0 0 M-36.0814 773.61 L-33.2168 773.61 L-33.2168 800.537 Q-27.1694 800.155 -23.9865 796.909 Q-20.8355 793.63 -20.8355 787.806 Q-20.8355 784.432 -21.663 781.281 Q-22.4906 778.098 -24.1457 774.979 L-18.6075 774.979 Q-17.2707 778.13 -16.5705 781.44 Q-15.8702 784.75 -15.8702 788.156 Q-15.8702 796.686 -20.8355 801.683 Q-25.8007 806.648 -34.2671 806.648 Q-43.02 806.648 -48.1444 801.938 Q-53.3006 797.195 -53.3006 789.174 Q-53.3006 781.981 -48.6536 777.812 Q-44.0385 773.61 -36.0814 773.61 M-37.8001 779.467 Q-42.6062 779.53 -45.4708 782.172 Q-48.3353 784.782 -48.3353 789.111 Q-48.3353 794.012 -45.5663 796.972 Q-42.7972 799.901 -37.7683 800.346 L-37.8001 779.467 Z" fill="#000000" fill-rule="evenodd" fill-opacity="1" /><path clip-path="url(#clip760)" d="M 0 0 M-46.9667 746.811 Q-47.5396 747.797 -47.7943 748.975 Q-48.0807 750.121 -48.0807 751.521 Q-48.0807 756.486 -44.8342 759.16 Q-41.6195 761.802 -35.5721 761.802 L-16.7933 761.802 L-16.7933 767.69 L-52.4412 767.69 L-52.4412 761.802 L-46.9031 761.802 Q-50.1496 759.956 -51.7092 756.996 Q-53.3006 754.036 -53.3006 749.802 Q-53.3006 749.198 -53.2051 748.466 Q-53.1415 747.734 -52.9823 746.842 L-46.9667 746.811 Z" fill="#000000" fill-rule="evenodd" fill-opacity="1" /><path clip-path="url(#clip760)" d="M 0 0 M-35.031 718.356 Q-41.3967 718.356 -44.8979 720.998 Q-48.399 723.608 -48.399 728.35 Q-48.399 733.061 -44.8979 735.702 Q-41.3967 738.312 -35.031 738.312 Q-28.6971 738.312 -25.196 735.702 Q-21.6949 733.061 -21.6949 728.35 Q-21.6949 723.608 -25.196 720.998 Q-28.6971 718.356 -35.031 718.356 M-21.2174 712.499 Q-12.1145 712.499 -7.69031 716.542 Q-3.23432 720.584 -3.23432 728.923 Q-3.23432 732.01 -3.71174 734.748 Q-4.15734 737.485 -5.1122 740.063 L-10.8095 740.063 Q-9.40905 737.485 -8.74065 734.97 Q-8.07225 732.456 -8.07225 729.846 Q-8.07225 724.085 -11.096 721.22 Q-14.0878 718.356 -20.1671 718.356 L-23.0635 718.356 Q-19.9125 720.17 -18.3529 723.003 Q-16.7933 725.836 -16.7933 729.782 Q-16.7933 736.339 -21.7904 740.349 Q-26.7874 744.36 -35.031 744.36 Q-43.3064 744.36 -48.3035 740.349 Q-53.3006 736.339 -53.3006 729.782 Q-53.3006 725.836 -51.741 723.003 Q-50.1814 720.17 -47.0304 718.356 L-52.4412 718.356 L-52.4412 712.499 L-21.2174 712.499 Z" fill="#000000" fill-rule="evenodd" fill-opacity="1" /><path clip-path="url(#clip760)" d="M 0 0 M-13.4831 691.524 Q-7.1174 694.007 -5.17586 696.362 Q-3.23432 698.718 -3.23432 702.664 L-3.23432 707.343 L-8.13591 707.343 L-8.13591 703.906 Q-8.13591 701.487 -9.28174 700.15 Q-10.4276 698.813 -14.6926 697.19 L-17.3662 696.14 L-52.4412 710.558 L-52.4412 704.351 L-24.5594 693.211 L-52.4412 682.071 L-52.4412 675.865 L-13.4831 691.524 Z" fill="#000000" fill-rule="evenodd" fill-opacity="1" /><line clip-path="url(#clip762)" x1="280.542" y1="1464" x2="200.542" y2="1464" style="stroke:#009af9; stroke-width:3.2; stroke-opacity:1"/>
<line clip-path="url(#clip762)" x1="280.542" y1="1336.78" x2="200.542" y2="1336.78" style="stroke:#009af9; stroke-width:3.2; stroke-opacity:1"/>
<line clip-path="url(#clip762)" x1="280.542" y1="1336.78" x2="200.542" y2="1336.78" style="stroke:#009af9; stroke-width:3.2; stroke-opacity:1"/>
<line clip-path="url(#clip762)" x1="280.542" y1="1336.78" x2="200.542" y2="1336.78" style="stroke:#009af9; stroke-width:3.2; stroke-opacity:1"/>
<line clip-path="url(#clip762)" x1="280.542" y1="1232.41" x2="200.542" y2="1232.41" style="stroke:#009af9; stroke-width:3.2; stroke-opacity:1"/>
<line clip-path="url(#clip762)" x1="280.542" y1="1173.77" x2="200.542" y2="1173.77" style="stroke:#009af9; stroke-width:3.2; stroke-opacity:1"/>
<line clip-path="url(#clip762)" x1="280.542" y1="1173.77" x2="200.542" y2="1173.77" style="stroke:#009af9; stroke-width:3.2; stroke-opacity:1"/>
<line clip-path="url(#clip762)" x1="280.542" y1="1173.77" x2="200.542" y2="1173.77" style="stroke:#009af9; stroke-width:3.2; stroke-opacity:1"/>
<line clip-path="url(#clip762)" x1="280.542" y1="1173.77" x2="200.542" y2="1173.77" style="stroke:#009af9; stroke-width:3.2; stroke-opacity:1"/>
<line clip-path="url(#clip762)" x1="280.542" y1="1173.77" x2="200.542" y2="1173.77" style="stroke:#009af9; stroke-width:3.2; stroke-opacity:1"/>
<line clip-path="url(#clip762)" x1="280.542" y1="1173.77" x2="200.542" y2="1173.77" style="stroke:#009af9; stroke-width:3.2; stroke-opacity:1"/>
<line clip-path="url(#clip762)" x1="280.542" y1="1097.45" x2="200.542" y2="1097.45" style="stroke:#009af9; stroke-width:3.2; stroke-opacity:1"/>
<line clip-path="url(#clip762)" x1="280.542" y1="1097.45" x2="200.542" y2="1097.45" style="stroke:#009af9; stroke-width:3.2; stroke-opacity:1"/>
<line clip-path="url(#clip762)" x1="280.542" y1="1097.45" x2="200.542" y2="1097.45" style="stroke:#009af9; stroke-width:3.2; stroke-opacity:1"/>
<line clip-path="url(#clip762)" x1="280.542" y1="1097.45" x2="200.542" y2="1097.45" style="stroke:#009af9; stroke-width:3.2; stroke-opacity:1"/>
<line clip-path="url(#clip762)" x1="280.542" y1="1097.45" x2="200.542" y2="1097.45" style="stroke:#009af9; stroke-width:3.2; stroke-opacity:1"/>
<line clip-path="url(#clip762)" x1="280.542" y1="1097.45" x2="200.542" y2="1097.45" style="stroke:#009af9; stroke-width:3.2; stroke-opacity:1"/>
<line clip-path="url(#clip762)" x1="280.542" y1="1026.73" x2="200.542" y2="1026.73" style="stroke:#009af9; stroke-width:3.2; stroke-opacity:1"/>
<line clip-path="url(#clip762)" x1="280.542" y1="1026.73" x2="200.542" y2="1026.73" style="stroke:#009af9; stroke-width:3.2; stroke-opacity:1"/>
<line clip-path="url(#clip762)" x1="280.542" y1="1026.73" x2="200.542" y2="1026.73" style="stroke:#009af9; stroke-width:3.2; stroke-opacity:1"/>
<line clip-path="url(#clip762)" x1="280.542" y1="1026.73" x2="200.542" y2="1026.73" style="stroke:#009af9; stroke-width:3.2; stroke-opacity:1"/>
<line clip-path="url(#clip762)" x1="280.542" y1="1026.73" x2="200.542" y2="1026.73" style="stroke:#009af9; stroke-width:3.2; stroke-opacity:1"/>
<line clip-path="url(#clip762)" x1="280.542" y1="1026.73" x2="200.542" y2="1026.73" style="stroke:#009af9; stroke-width:3.2; stroke-opacity:1"/>
<line clip-path="url(#clip762)" x1="280.542" y1="1013.91" x2="200.542" y2="1013.91" style="stroke:#009af9; stroke-width:3.2; stroke-opacity:1"/>
<line clip-path="url(#clip762)" x1="280.542" y1="1013.91" x2="200.542" y2="1013.91" style="stroke:#009af9; stroke-width:3.2; stroke-opacity:1"/>
<line clip-path="url(#clip762)" x1="280.542" y1="1013.91" x2="200.542" y2="1013.91" style="stroke:#009af9; stroke-width:3.2; stroke-opacity:1"/>
<line clip-path="url(#clip762)" x1="280.542" y1="1013.91" x2="200.542" y2="1013.91" style="stroke:#009af9; stroke-width:3.2; stroke-opacity:1"/>
<line clip-path="url(#clip762)" x1="280.542" y1="1013.91" x2="200.542" y2="1013.91" style="stroke:#009af9; stroke-width:3.2; stroke-opacity:1"/>
<line clip-path="url(#clip762)" x1="280.542" y1="990.825" x2="200.542" y2="990.825" style="stroke:#009af9; stroke-width:3.2; stroke-opacity:1"/>
<line clip-path="url(#clip762)" x1="280.542" y1="990.825" x2="200.542" y2="990.825" style="stroke:#009af9; stroke-width:3.2; stroke-opacity:1"/>
<line clip-path="url(#clip762)" x1="280.542" y1="969.145" x2="200.542" y2="969.145" style="stroke:#009af9; stroke-width:3.2; stroke-opacity:1"/>
<line clip-path="url(#clip762)" x1="280.542" y1="969.145" x2="200.542" y2="969.145" style="stroke:#009af9; stroke-width:3.2; stroke-opacity:1"/>
<line clip-path="url(#clip762)" x1="426.343" y1="1464" x2="346.343" y2="1464" style="stroke:#e26f46; stroke-width:3.2; stroke-opacity:1"/>
<line clip-path="url(#clip762)" x1="426.343" y1="1013.91" x2="346.343" y2="1013.91" style="stroke:#e26f46; stroke-width:3.2; stroke-opacity:1"/>
<line clip-path="url(#clip762)" x1="426.343" y1="818.714" x2="346.343" y2="818.714" style="stroke:#e26f46; stroke-width:3.2; stroke-opacity:1"/>
<line clip-path="url(#clip762)" x1="426.343" y1="752.049" x2="346.343" y2="752.049" style="stroke:#e26f46; stroke-width:3.2; stroke-opacity:1"/>
<line clip-path="url(#clip762)" x1="426.343" y1="683.636" x2="346.343" y2="683.636" style="stroke:#e26f46; stroke-width:3.2; stroke-opacity:1"/>
<line clip-path="url(#clip762)" x1="426.343" y1="575.312" x2="346.343" y2="575.312" style="stroke:#e26f46; stroke-width:3.2; stroke-opacity:1"/>
<line clip-path="url(#clip762)" x1="426.343" y1="575.312" x2="346.343" y2="575.312" style="stroke:#e26f46; stroke-width:3.2; stroke-opacity:1"/>
<line clip-path="url(#clip762)" x1="426.343" y1="483.501" x2="346.343" y2="483.501" style="stroke:#e26f46; stroke-width:3.2; stroke-opacity:1"/>
<line clip-path="url(#clip762)" x1="426.343" y1="271.795" x2="346.343" y2="271.795" style="stroke:#e26f46; stroke-width:3.2; stroke-opacity:1"/>
<line clip-path="url(#clip762)" x1="426.343" y1="88.5087" x2="346.343" y2="88.5087" style="stroke:#e26f46; stroke-width:3.2; stroke-opacity:1"/>
<line clip-path="url(#clip762)" x1="572.145" y1="1173.77" x2="492.145" y2="1173.77" style="stroke:#3da44d; stroke-width:3.2; stroke-opacity:1"/>
<line clip-path="url(#clip762)" x1="572.145" y1="853.794" x2="492.145" y2="853.794" style="stroke:#3da44d; stroke-width:3.2; stroke-opacity:1"/>
<line clip-path="url(#clip762)" x1="572.145" y1="728.261" x2="492.145" y2="728.261" style="stroke:#3da44d; stroke-width:3.2; stroke-opacity:1"/>
<line clip-path="url(#clip762)" x1="572.145" y1="700.1" x2="492.145" y2="700.1" style="stroke:#3da44d; stroke-width:3.2; stroke-opacity:1"/>
<line clip-path="url(#clip762)" x1="572.145" y1="646.603" x2="492.145" y2="646.603" style="stroke:#3da44d; stroke-width:3.2; stroke-opacity:1"/>
<line clip-path="url(#clip762)" x1="572.145" y1="468.942" x2="492.145" y2="468.942" style="stroke:#3da44d; stroke-width:3.2; stroke-opacity:1"/>
<line clip-path="url(#clip762)" x1="572.145" y1="358.029" x2="492.145" y2="358.029" style="stroke:#3da44d; stroke-width:3.2; stroke-opacity:1"/>
<line clip-path="url(#clip762)" x1="572.145" y1="159.799" x2="492.145" y2="159.799" style="stroke:#3da44d; stroke-width:3.2; stroke-opacity:1"/>
<line clip-path="url(#clip762)" x1="717.946" y1="1026.73" x2="637.946" y2="1026.73" style="stroke:#c271d2; stroke-width:3.2; stroke-opacity:1"/>
<line clip-path="url(#clip762)" x1="717.946" y1="969.145" x2="637.946" y2="969.145" style="stroke:#c271d2; stroke-width:3.2; stroke-opacity:1"/>
<line clip-path="url(#clip762)" x1="717.946" y1="883.711" x2="637.946" y2="883.711" style="stroke:#c271d2; stroke-width:3.2; stroke-opacity:1"/>
<line clip-path="url(#clip762)" x1="717.946" y1="720.616" x2="637.946" y2="720.616" style="stroke:#c271d2; stroke-width:3.2; stroke-opacity:1"/>
<line clip-path="url(#clip762)" x1="717.946" y1="638.269" x2="637.946" y2="638.269" style="stroke:#c271d2; stroke-width:3.2; stroke-opacity:1"/>
<line clip-path="url(#clip762)" x1="717.946" y1="465.391" x2="637.946" y2="465.391" style="stroke:#c271d2; stroke-width:3.2; stroke-opacity:1"/>
<line clip-path="url(#clip762)" x1="717.946" y1="424.882" x2="637.946" y2="424.882" style="stroke:#c271d2; stroke-width:3.2; stroke-opacity:1"/>
<line clip-path="url(#clip762)" x1="717.946" y1="331.911" x2="637.946" y2="331.911" style="stroke:#c271d2; stroke-width:3.2; stroke-opacity:1"/>
<line clip-path="url(#clip762)" x1="717.946" y1="203.957" x2="637.946" y2="203.957" style="stroke:#c271d2; stroke-width:3.2; stroke-opacity:1"/>
<line clip-path="url(#clip762)" x1="863.748" y1="1097.45" x2="783.748" y2="1097.45" style="stroke:#ac8d18; stroke-width:3.2; stroke-opacity:1"/>
<line clip-path="url(#clip762)" x1="863.748" y1="990.825" x2="783.748" y2="990.825" style="stroke:#ac8d18; stroke-width:3.2; stroke-opacity:1"/>
<line clip-path="url(#clip762)" x1="863.748" y1="784.376" x2="783.748" y2="784.376" style="stroke:#ac8d18; stroke-width:3.2; stroke-opacity:1"/>
<line clip-path="url(#clip762)" x1="863.748" y1="681.683" x2="783.748" y2="681.683" style="stroke:#ac8d18; stroke-width:3.2; stroke-opacity:1"/>
<line clip-path="url(#clip762)" x1="863.748" y1="510.701" x2="783.748" y2="510.701" style="stroke:#ac8d18; stroke-width:3.2; stroke-opacity:1"/>
<line clip-path="url(#clip762)" x1="863.748" y1="504.022" x2="783.748" y2="504.022" style="stroke:#ac8d18; stroke-width:3.2; stroke-opacity:1"/>
<line clip-path="url(#clip762)" x1="863.748" y1="296.831" x2="783.748" y2="296.831" style="stroke:#ac8d18; stroke-width:3.2; stroke-opacity:1"/>
<line clip-path="url(#clip762)" x1="863.748" y1="223.42" x2="783.748" y2="223.42" style="stroke:#ac8d18; stroke-width:3.2; stroke-opacity:1"/>
<line clip-path="url(#clip762)" x1="1009.55" y1="1336.78" x2="929.55" y2="1336.78" style="stroke:#00a9ad; stroke-width:3.2; stroke-opacity:1"/>
<line clip-path="url(#clip762)" x1="1009.55" y1="1232.41" x2="929.55" y2="1232.41" style="stroke:#00a9ad; stroke-width:3.2; stroke-opacity:1"/>
<line clip-path="url(#clip762)" x1="1009.55" y1="867.794" x2="929.55" y2="867.794" style="stroke:#00a9ad; stroke-width:3.2; stroke-opacity:1"/>
<line clip-path="url(#clip762)" x1="1009.55" y1="760.511" x2="929.55" y2="760.511" style="stroke:#00a9ad; stroke-width:3.2; stroke-opacity:1"/>
<line clip-path="url(#clip762)" x1="1009.55" y1="575.312" x2="929.55" y2="575.312" style="stroke:#00a9ad; stroke-width:3.2; stroke-opacity:1"/>
<line clip-path="url(#clip762)" x1="1009.55" y1="575.312" x2="929.55" y2="575.312" style="stroke:#00a9ad; stroke-width:3.2; stroke-opacity:1"/>
<line clip-path="url(#clip762)" x1="1009.55" y1="575.312" x2="929.55" y2="575.312" style="stroke:#00a9ad; stroke-width:3.2; stroke-opacity:1"/>
<line clip-path="url(#clip762)" x1="1009.55" y1="331.911" x2="929.55" y2="331.911" style="stroke:#00a9ad; stroke-width:3.2; stroke-opacity:1"/>
<line clip-path="url(#clip762)" x1="1009.55" y1="251.574" x2="929.55" y2="251.574" style="stroke:#00a9ad; stroke-width:3.2; stroke-opacity:1"/>
<line clip-path="url(#clip762)" x1="1009.55" y1="219.823" x2="929.55" y2="219.823" style="stroke:#00a9ad; stroke-width:3.2; stroke-opacity:1"/>
<line clip-path="url(#clip762)" x1="1155.35" y1="1097.45" x2="1075.35" y2="1097.45" style="stroke:#ed5d92; stroke-width:3.2; stroke-opacity:1"/>
<line clip-path="url(#clip762)" x1="1155.35" y1="990.825" x2="1075.35" y2="990.825" style="stroke:#ed5d92; stroke-width:3.2; stroke-opacity:1"/>
<line clip-path="url(#clip762)" x1="1155.35" y1="784.376" x2="1075.35" y2="784.376" style="stroke:#ed5d92; stroke-width:3.2; stroke-opacity:1"/>
<line clip-path="url(#clip762)" x1="1155.35" y1="681.683" x2="1075.35" y2="681.683" style="stroke:#ed5d92; stroke-width:3.2; stroke-opacity:1"/>
<line clip-path="url(#clip762)" x1="1155.35" y1="510.701" x2="1075.35" y2="510.701" style="stroke:#ed5d92; stroke-width:3.2; stroke-opacity:1"/>
<line clip-path="url(#clip762)" x1="1155.35" y1="504.022" x2="1075.35" y2="504.022" style="stroke:#ed5d92; stroke-width:3.2; stroke-opacity:1"/>
<line clip-path="url(#clip762)" x1="1155.35" y1="296.831" x2="1075.35" y2="296.831" style="stroke:#ed5d92; stroke-width:3.2; stroke-opacity:1"/>
<line clip-path="url(#clip762)" x1="1155.35" y1="223.42" x2="1075.35" y2="223.42" style="stroke:#ed5d92; stroke-width:3.2; stroke-opacity:1"/>
<line clip-path="url(#clip762)" x1="1301.15" y1="1026.73" x2="1221.15" y2="1026.73" style="stroke:#c68125; stroke-width:3.2; stroke-opacity:1"/>
<line clip-path="url(#clip762)" x1="1301.15" y1="969.145" x2="1221.15" y2="969.145" style="stroke:#c68125; stroke-width:3.2; stroke-opacity:1"/>
<line clip-path="url(#clip762)" x1="1301.15" y1="883.711" x2="1221.15" y2="883.711" style="stroke:#c68125; stroke-width:3.2; stroke-opacity:1"/>
<line clip-path="url(#clip762)" x1="1301.15" y1="720.616" x2="1221.15" y2="720.616" style="stroke:#c68125; stroke-width:3.2; stroke-opacity:1"/>
<line clip-path="url(#clip762)" x1="1301.15" y1="638.269" x2="1221.15" y2="638.269" style="stroke:#c68125; stroke-width:3.2; stroke-opacity:1"/>
<line clip-path="url(#clip762)" x1="1301.15" y1="465.391" x2="1221.15" y2="465.391" style="stroke:#c68125; stroke-width:3.2; stroke-opacity:1"/>
<line clip-path="url(#clip762)" x1="1301.15" y1="424.882" x2="1221.15" y2="424.882" style="stroke:#c68125; stroke-width:3.2; stroke-opacity:1"/>
<line clip-path="url(#clip762)" x1="1301.15" y1="331.911" x2="1221.15" y2="331.911" style="stroke:#c68125; stroke-width:3.2; stroke-opacity:1"/>
<line clip-path="url(#clip762)" x1="1301.15" y1="203.957" x2="1221.15" y2="203.957" style="stroke:#c68125; stroke-width:3.2; stroke-opacity:1"/>
<line clip-path="url(#clip762)" x1="1446.95" y1="1173.77" x2="1366.95" y2="1173.77" style="stroke:#00a98d; stroke-width:3.2; stroke-opacity:1"/>
<line clip-path="url(#clip762)" x1="1446.95" y1="853.794" x2="1366.95" y2="853.794" style="stroke:#00a98d; stroke-width:3.2; stroke-opacity:1"/>
<line clip-path="url(#clip762)" x1="1446.95" y1="728.261" x2="1366.95" y2="728.261" style="stroke:#00a98d; stroke-width:3.2; stroke-opacity:1"/>
<line clip-path="url(#clip762)" x1="1446.95" y1="700.1" x2="1366.95" y2="700.1" style="stroke:#00a98d; stroke-width:3.2; stroke-opacity:1"/>
<line clip-path="url(#clip762)" x1="1446.95" y1="646.603" x2="1366.95" y2="646.603" style="stroke:#00a98d; stroke-width:3.2; stroke-opacity:1"/>
<line clip-path="url(#clip762)" x1="1446.95" y1="468.942" x2="1366.95" y2="468.942" style="stroke:#00a98d; stroke-width:3.2; stroke-opacity:1"/>
<line clip-path="url(#clip762)" x1="1446.95" y1="358.029" x2="1366.95" y2="358.029" style="stroke:#00a98d; stroke-width:3.2; stroke-opacity:1"/>
<line clip-path="url(#clip762)" x1="1446.95" y1="159.799" x2="1366.95" y2="159.799" style="stroke:#00a98d; stroke-width:3.2; stroke-opacity:1"/>
</svg>
